<?xml version="1.0" standalone="no"?>
<!DOCTYPE svg PUBLIC "-//W3C//DTD SVG 1.1//EN" "http://www.w3.org/Graphics/SVG/1.1/DTD/svg11.dtd" >
<svg xmlns="http://www.w3.org/2000/svg" xmlns:xlink="http://www.w3.org/1999/xlink" version="1.1">
<metadata></metadata>
<defs>
<font id="another_brush_penregular" horiz-adv-x="1024" >
<font-face units-per-em="2048" ascent="1536" descent="-512" />
<missing-glyph horiz-adv-x="595" />
<glyph horiz-adv-x="0" />
<glyph horiz-adv-x="682" />
<glyph unicode=" "  horiz-adv-x="595" />
<glyph unicode="&#x09;" horiz-adv-x="595" />
<glyph unicode="&#xa0;" horiz-adv-x="595" />
<glyph unicode="!" horiz-adv-x="567" d="M124 226.5q-1 11.5 9 21.5q37 45 84.5 72.5t106.5 19.5q76 0 98 -68q18 -41 12 -73.5t-33 -67.5q-10 -14 -26.5 -25.5t-30.5 -27.5q-16 -10 -30.5 -14.5t-32.5 4.5q-47 23 -88 52.5t-64 84.5q-4 10 -5 21.5zM164 1432q-8 41 4 64.5t53 33.5q35 10 66.5 17t64.5 -9 q35 -10 42 -22.5t7 -49.5v-116.5t-4 -98.5q-8 -117 -12 -217t-12 -196q-4 -45 -3 -86t7 -84q8 -37 9 -73t-9 -69q-12 -63 -72 -34q-59 35 -93 79.5t-30 114.5q0 29 -1 56.5t7 56.5q14 55 4 107t-14 108v321q-4 25 -6 49.5t-8 47.5z" />
<glyph unicode="&#x22;" horiz-adv-x="706" d="M150 1403q8 41 7 79t-1 81q-4 4 -3 10t1 14q6 35 47 39q59 10 86 -31q8 -16 12 -35.5t-2 -41.5q-14 -80 -17.5 -158t7.5 -156q4 -8 4 -16v-17q-6 -23 -22.5 -26.5t-28.5 10.5q-31 27 -54.5 57.5t-27.5 73.5q-4 33 -7.5 60.5t-0.5 56.5zM436 1561q2 49 20.5 59t65.5 -10 q33 -10 52.5 -40t9.5 -67q-14 -76 -17.5 -154.5t-13.5 -156.5v-2q0 -2 -1 -4t-1 -4q-2 -10 -5 -22.5t-20 -16.5q-8 -2 -16 5t-14 13q-33 27 -45.5 60.5t-8.5 66.5q-6 135 -6 273z" />
<glyph unicode="#" d="M-25 936q10 14 26.5 16t33.5 6q47 12 95 20.5t95 18.5q20 6 32.5 11.5t19 12.5t9.5 20.5t7 35.5q4 43 10 89t14 91q6 53 64 54q47 -8 73.5 -44t18.5 -83q-8 -27 -12 -49.5t-8 -49.5q-6 -43 34 -32q47 4 95.5 7t95.5 7q23 0 31 12.5t8 30.5q8 47 15 97t3 98q0 8 -2 14 t-2 10q0 35 35 35q14 4 36.5 -3t26.5 -22q4 -37 5.5 -75.5t-5.5 -75.5v-19q-4 -43 -8 -66.5t0 -33.5t20.5 -13t55.5 -9q51 -4 94 -23.5t72 -65.5q37 -57 -25 -71h-53h-137q-10 0 -20.5 -1t-18.5 -5q-20 -12 -29.5 -27.5t-12.5 -34t-4 -37t-3 -37.5q-8 -27 11.5 -33.5 t37.5 -15.5q47 -10 95 -15t95 11q14 4 28.5 4t25.5 -10q29 -23 26.5 -50.5t-37.5 -45.5q-41 -18 -84 -22.5t-86 -8.5q-18 -4 -36.5 -2t-40.5 2q-47 4 -60.5 -7t-13.5 -54q-4 -47 -4 -92.5v-88.5q0 -18 -3 -37.5t-22 -25.5q-23 -4 -38 8t-25 31q-23 29 -28 59.5t-1 65.5 q4 27 7 52.5t7 49.5q0 37 -34 31q-37 -8 -72 -7t-70 -3q-43 -8 -58 -23.5t-20 -60.5q0 -35 -1 -72t-9 -78q0 -16 -3 -28.5t-19 -20.5q-18 -8 -30.5 3t-29.5 22q-37 29 -55 68.5t-8 90.5v25q2 25 2 38t-5 20t-17.5 12.5t-37.5 13.5q-27 6 -48 17.5t-40 21.5q-12 4 -20 18 q0 10 8 15.5t16 9.5q29 4 59 10t58 10q23 2 35 5.5t19.5 10.5t10.5 19t9 37q4 10 4 25q4 35 4 54t-7 29.5t-23.5 12.5t-45.5 2q-47 4 -98 10t-92 47q-8 8 -14.5 13.5t-6.5 17.5zM410 756q-4 -35 3 -42t40 -7q35 0 64.5 5t62.5 5q25 2 38 4t20 8t12 18.5t14 36.5q4 14 6 25.5 t2 28.5q4 27 -6.5 35t-47.5 8q-23 -4 -50 -7.5t-56 -7.5q-29 -6 -46 -13t-28.5 -18.5t-16.5 -30t-11 -48.5z" />
<glyph unicode="$" d="M152 486.5q4 29.5 20 39.5q35 25 73 28t60 -24q14 -10 25.5 -26.5t27.5 -26.5q14 -10 25.5 -23.5t28.5 -19.5q74 -53 73 39v72t4 73q0 53 -53 74q-63 18 -111.5 61.5t-82.5 98.5q-35 47 -42 103.5t-3 115.5q4 37 16 67.5t29 63.5q6 27 25.5 40t41.5 9q33 -4 62.5 3.5 t64.5 7.5q33 0 43 11t15 46v219q0 82 73 45q29 -16 42.5 -43t17.5 -59q4 -47 6 -92.5t2 -92.5q0 -35 12 -55t47 -39q51 -23 87 -62.5t65 -86.5q6 -8 8 -21.5t-8 -23.5q-8 -10 -21.5 -9.5t-27.5 5.5q-18 8 -37 18t-37 20q-10 8 -21.5 14.5t-21.5 14.5q-49 16 -49 -24 q4 -70 -8.5 -136.5t-12.5 -132.5q0 -45 45 -78q29 -23 59.5 -42t57.5 -44q37 -45 68.5 -91t48.5 -105q16 -51 8 -98.5t-51 -81.5q-29 -23 -65 -35.5t-76 -12.5h-39q-29 0 -40.5 -10t-15.5 -43q0 -29 -3 -59.5t3 -59.5q0 -10 2 -23t-2 -30q0 -55 -53 -33q-43 23 -60.5 61 t-21.5 85q-4 23 -2 47.5t2 50.5q0 35 -9 48.5t-44 23.5q-10 8 -24.5 9t-24.5 5q-23 4 -43.5 10.5t-30.5 24.5q-25 29 -58.5 53.5t-62.5 52.5q-10 18 -20 25q-10 29 -6 58.5zM355 925.5q3 -30.5 16.5 -57t35 -47t48.5 -26.5q16 -8 25 -2t9 20q0 74 -0.5 144.5t5.5 142.5 q-4 8 -4.5 17t-14.5 13q-10 4 -17 -4t-12 -16q-27 -29 -47 -59.5t-37 -67.5q-10 -27 -7 -57.5zM602 537q4 -16 4 -30.5v-33.5q0 -55 21.5 -73.5t77.5 -10.5q33 8 47 27.5t6 56.5q0 20 -9.5 35.5t-22.5 26t-29.5 19.5t-30.5 21q-29 16 -46.5 6t-17.5 -44z" />
<glyph unicode="%" d="M51 1163q-10 66 1 125.5t34 118.5q16 45 49 82t92 45q23 4 44.5 9t37.5 5q33 0 62.5 -14t51 -37.5t34 -54.5t10.5 -64q-4 -41 -8 -84t-13 -86q-10 -63 -40.5 -113.5t-71.5 -97.5q-37 -43 -88 -28q-70 16 -126.5 65t-68.5 129zM150.5 166q-3.5 45 33.5 106q6 16 15.5 30.5 t13.5 33.5q29 158 89 299t130 280q43 80 81 163t75 169q10 25 21.5 40.5t27.5 24.5t38.5 15t57.5 12q8 -4 17.5 -5t17.5 -5q41 -8 53.5 -33.5t-14.5 -58.5q-47 -66 -84 -141.5t-92 -141.5q-4 -4 -7 -9t-8 -9q-10 -49 -30.5 -94t-44 -88t-48 -86t-42.5 -88 q-47 -117 -95.5 -235t-74.5 -243l-7.5 -15t-7.5 -13q-10 -27 -29.5 -28t-37.5 22q-45 53 -48.5 98zM178 1119.5q0 -9.5 10 -13.5q8 -4 16.5 1t12.5 9q45 47 66.5 103.5t35.5 115.5v29q-4 10 -4 21.5t-14 11.5q-10 4 -15 -6.5t-10 -16.5q-27 -53 -45 -105t-47 -106 q0 -4 -3 -10t-3 -14v-19.5zM528 375q4 29 7.5 49t-0.5 39q-10 72 22.5 136.5t97.5 92.5q47 25 97.5 31t103.5 -23q18 -6 32.5 -20t10.5 -37q-2 -29 2 -57.5t10.5 -57t10.5 -58.5t2 -60q-4 -39 -19.5 -78t-40 -75t-56.5 -63.5t-69 -41.5q-37 -10 -85 8t-76 55 q-29 41 -41.5 82t-8.5 78zM641 307q4 -18 8 -39.5t21 -29.5q18 -4 33.5 10t25.5 24q47 47 58.5 104.5t19.5 110.5q0 25 -2 44.5t-12 37.5q-18 25 -45 25q-14 0 -21.5 -11.5t-7.5 -23.5q-4 -23 -12.5 -41t-16.5 -37q-23 -43 -40 -85t-9 -89z" />
<glyph unicode="&#x26;" d="M96 233q10 74 41 139.5t72 125.5q14 25 30.5 44t32.5 42q23 23 24 46t-9 52q-16 55 -42 103.5t-50 95.5q-16 23 -13.5 43t13.5 45q33 78 84 141.5t110 116.5q127 115 301 78q78 -18 119 -84t33 -168q-8 -59 -34 -133t-87 -136q-47 -51 -95 -102t-100 -102 q-29 -33 -28.5 -48.5t28.5 -50.5q33 -29 47.5 -28.5t38.5 34.5q27 29 50.5 61t52.5 60q47 53 100 58.5t100 -23.5q43 -27 43 -53.5t-43 -48.5q-66 -33 -107.5 -83t-78.5 -112q-29 -43 6 -78q14 -23 39 -45q8 -6 16.5 -13t12.5 -15q23 -27 23.5 -47.5t-13.5 -30.5 q-33 -23 -78 14q-16 10 -29.5 25.5t-29.5 33.5q-14 10 -25.5 10.5t-27.5 -16.5q-37 -35 -77 -64.5t-75 -70.5q-74 -84 -174 -53q-18 4 -36.5 5t-37.5 9q-31 8 -56.5 32t-43 54.5t-25.5 66.5t-2 70zM213 160q-4 -29 10.5 -41.5t42.5 -1.5q8 4 18.5 10t22.5 14 q29 27 60.5 55.5t60.5 57.5q27 27 41 42t14 29.5t-14 30t-41 43.5q-29 25 -53 0q-47 -41 -84 -90t-64 -104q-6 -10 -8 -21.5t-6 -23.5zM385 774.5q0 -8.5 4 -18.5q4 -23 18.5 -26t30.5 15q47 59 102.5 111.5t106.5 112.5q29 29 52.5 65.5t29.5 81.5q16 90 -72 68 q-10 -4 -22 -8.5t-23 -12.5q-53 -23 -88 -61.5t-71 -83.5q-37 -51 -47.5 -107.5t-20.5 -115.5v-20.5z" />
<glyph unicode="'" horiz-adv-x="178" d="M23 965q2 49 20 59t66 -10q33 -10 52 -40t9 -67q-14 -76 -17 -154.5t-14 -156.5v-2q0 -2 -1 -4t-1 -4q-2 -10 -5 -22.5t-19 -16.5q-8 -2 -16.5 5t-14.5 13q-33 27 -45 60.5t-8 66.5q-6 135 -6 273z" />
<glyph unicode="(" d="M287 848q0 25 2 50.5t2 51.5q8 96 27.5 186.5t41.5 182.5q29 150 103 258q23 31 41 64.5t41 68.5q27 41 49 41t57 -37q51 -57 17 -141q-41 -92 -81 -184.5t-67 -194.5q-37 -129 -60.5 -259t-6.5 -273q8 -92 31.5 -170t64.5 -152q23 -35 46 -71t52 -64q23 -18 38 -48 t26 -59q10 -23 12 -44t-8 -40q-27 -51 -68 -18q-23 16 -43 39.5t-35 52.5q-33 61 -71.5 117.5t-73.5 116.5q-72 115 -102.5 244.5t-34.5 281.5z" />
<glyph unicode=")" d="M285 1680.5q-4 21.5 10 43.5q33 45 63 15q23 -18 45.5 -40t38.5 -48q33 -61 70 -117.5t72 -116.5q70 -117 103.5 -248t37.5 -278q-4 -25 -5 -50.5t-1 -52.5q-6 -96 -27.5 -187t-40.5 -183q-29 -147 -102 -258q-23 -33 -43.5 -68t-38.5 -67q-27 -41 -50.5 -41t-58.5 41 q-25 29 -30.5 64.5t12.5 70.5q43 92 84 187t68 198q33 125 57 256t10 270q-8 92 -34.5 172t-67.5 150q-18 37 -41 74.5t-51 66.5q-23 18 -38.5 46t-31.5 56q-6 23 -10 44.5z" />
<glyph unicode="*" d="M271 1107q-1 9 24 36q37 37 63 78q-10 18 -28.5 21t-34.5 13q-6 8 -14.5 13.5t-4.5 15.5t10.5 13t14.5 8q29 6 57.5 12t53.5 20q0 16 -8.5 21.5t-16.5 13.5q-16 10 -33.5 21.5t-34.5 27.5q-8 6 -15 17.5t1 21.5t18.5 7t20.5 -7q23 -8 42.5 -19t45.5 -16q4 29 -2 52.5 t-18 46.5q-12 12 0 28q14 14 30 4q39 -6 54 -43q8 -18 13 -35.5t19 -31.5q29 29 54.5 61.5t44.5 69.5q10 18 25.5 30.5t33.5 22.5q14 8 25.5 -3t7.5 -25q-8 -27 -12.5 -53.5t-20.5 -49.5q-12 -12 -20 -39q-8 -16 -5 -25.5t25 -9.5q10 -4 20.5 -9t18.5 -15q10 -14 12 -28.5 t-12 -29.5q-4 -8 -11 -12l-14 -8q-47 -33 -47 -50.5t52 -47.5q10 -6 17 -12.5t11 -16.5q16 -23 0 -39q-10 -18 -43 -10q-23 12 -41 25.5t-37 29.5q-10 10 -20 18.5t-29 0.5q-10 -8 -12 -18.5t-2 -20.5q-4 -18 -7 -39t-7 -39q0 -33 -29 -39q-18 0 -25.5 12.5l-13.5 22.5 q-4 10 -6 19.5t-10 13.5q-14 -14 -31 -28.5t-33 -29.5q-29 -29 -43 -30t-43 24q-29 29 -30 38z" />
<glyph unicode="+" d="M203 737q47 4 97 13.5t97 17.5q51 10 62.5 25.5t1.5 66.5q-4 41 -4 78v74q4 33 12 45t31 8q23 0 45 -20.5t18 -43.5q-10 -35 -6 -68.5t-14 -68.5q-4 -6 -4 -17v-22q0 -35 39 -28q41 4 80.5 14t80.5 20q10 4 21.5 7.5t21.5 7.5q23 0 43.5 -4t30.5 -31q6 -18 -1 -45 t-30 -43q-45 -29 -92 -29q-33 0 -65.5 -3t-65.5 -11q-33 -10 -41 -21.5t-8 -46.5v-51t14 -47q8 -18 9.5 -38.5t-3.5 -43.5q0 -33 -34 -39q-20 0 -35 25q-49 49 -33 125q8 49 8 76.5t-13 38t-39 9.5t-69 -8q-23 -4 -41 -6t-41 2q-37 4 -51 21.5t-22 60.5z" />
<glyph unicode="," horiz-adv-x="385" d="M55 100q0 37 13.5 68t19.5 63q10 35 45 25q23 -8 47.5 -10t48.5 -8q47 -27 71 -67t13 -95q-10 -41 -21 -78t-24 -78q-10 -33 -36.5 -52.5t-45.5 -43.5q-12 -12 -28 4q-82 45 -25 117q8 8 12.5 16t12.5 19q8 13 24 38q-18 10 -30.5 9.5t-22.5 -0.5q-74 0 -74 73z" />
<glyph unicode="-" d="M195 709q-37 49 24 63q51 6 102.5 11t102.5 14q66 6 134.5 11t133.5 28q10 4 21.5 2t25.5 -2q12 0 26.5 -1t33.5 -6q39 -14 39 -57q4 -23 -8.5 -32t-30.5 -13q-92 -29 -176 -29q-66 0 -131.5 -5t-131.5 -9q-16 0 -29.5 -1t-23.5 -9q-41 -10 -65.5 -2t-46.5 37z" />
<glyph unicode="." horiz-adv-x="362" d="M74 131q8 125 127 131q25 2 48 -10t40.5 -32.5t25 -46.5t-1.5 -46q-8 -27 -10 -54.5t-24 -43.5q-23 -18 -41.5 -19.5t-44.5 -5.5q-53 -4 -86 32t-33 95z" />
<glyph unicode="/" d="M188 151.5q-2 53.5 17 116.5q29 84 62.5 167t74.5 169q33 78 58.5 156t54.5 155q43 123 99 235t99 232q8 18 19.5 31.5t34.5 18.5q37 4 70.5 10t70.5 14q29 0 46 -13t28 -40q10 -23 14 -46.5t-14 -51.5q-55 -84 -107.5 -172.5t-107.5 -174.5q-29 -41 -51.5 -86t-41 -91 t-36 -94t-37.5 -93q-29 -59 -51.5 -121.5t-42 -126t-38 -128t-42.5 -126.5q-4 -10 -7.5 -21.5t-7.5 -21.5q-8 -23 -19 -39t-40 -20q-27 0 -42 14t-26 39q-35 55 -37 108.5z" />
<glyph unicode="0" d="M66 721q4 27 5 52.5t5 53.5q0 27 7 47.5t17 45.5q23 47 35 101t8 114q-4 47 9.5 62t40.5 15q37 4 69.5 19.5t67.5 48.5q14 16 31.5 23.5t35.5 11.5q61 10 121 22.5t123 1.5q27 -8 51.5 -7t50.5 -3q23 -4 40.5 -15t27.5 -38q23 -57 68 -88q27 -18 44 -49t35 -58 q14 -18 14.5 -41.5t-9.5 -46.5q-16 -23 -17.5 -45t2.5 -51q14 -82 16.5 -162t-1.5 -160q-4 -78 -23.5 -150.5t-44.5 -141.5q-12 -35 -23.5 -67t-25.5 -64q-35 -66 -83 -107t-108 -59q-41 -10 -79.5 -19.5t-79.5 -9.5q-74 4 -138.5 37t-111.5 112q-47 78 -90 163t-66 188 q-14 63 -17 128.5t-7 135.5zM242 492q8 -80 31.5 -144.5t60.5 -124.5q10 -14 22.5 -24.5t30.5 -18.5q47 -23 95 -19.5t96 19.5q51 18 89 57t66 99q4 10 10.5 20.5t10.5 18.5q77 108 77 243q-4 61 -10 120t-10 114q-4 51 -22.5 73.5t-45.5 32.5q-6 6 -20 7q-18 8 -34.5 19 t-29.5 34q-10 18 -26.5 24.5t-30.5 10.5q-10 4 -24.5 7t-24.5 7q-59 23 -114.5 17.5t-114.5 -46.5q-57 -45 -58 -133q0 -23 -1 -46t-5 -46q-14 -80 -18 -157.5t0 -163.5z" />
<glyph unicode="1" d="M117 1097.5q2 8.5 12 8.5q47 4 81 32.5t71 55.5q14 10 31.5 23.5t35.5 29.5q37 25 67.5 56.5t63.5 60.5q37 29 80 25.5t86 -11.5q53 -6 43 -59q-4 -43 -7 -87t-11 -87q4 -66 0 -132.5t0 -131.5q2 -20 2 -81t-2 -129.5t-4 -130t-7 -83.5q-4 -29 1.5 -58.5t5.5 -62.5 q0 -29 1 -71t7 -75q4 -27 12 -32.5t37 -5.5q27 -4 55.5 -2t57.5 2q35 0 43 -14.5t1.5 -33t-23.5 -38t-36 -27.5q-27 -10 -57.5 -13t-63 -2t-64.5 3t-58 2q-39 0 -82 -5.5t-87 -6.5t-85 5.5t-74 30.5q-16 10 -33.5 9t-34.5 16q-14 18 -10 25.5t21 23.5q49 35 112 29 q25 -8 48.5 -4t47.5 8q23 0 29 24q12 27 6 60q-8 51 -9 111.5t3 111.5v35q-6 35 -5 109.5t3 157.5t5 159t3 110v23v17t-10 18q-10 8 -18.5 1t-16.5 -12q-10 -6 -21.5 -13t-21.5 -15q-37 -27 -77 -31t-83 6q-51 16 -69 49q-4 8 -2 16.5z" />
<glyph unicode="2" d="M14.5 836.5q-2.5 7.5 5.5 25.5q33 66 68 135.5t64 132.5q37 78 70.5 138.5t99.5 113.5q41 37 90 64t100 45q86 33 161 14.5t136 -78.5q37 -35 53.5 -77.5t38.5 -83.5q8 -10 12.5 -21.5t12.5 -21.5q18 -27 20 -55.5t-6 -57.5q-23 -78 -38 -151.5t-19 -155.5 q-4 -70 -23.5 -136.5t-60.5 -125.5q-27 -41 0 -84q23 -33 33 -73t26 -77q14 -45 22.5 -86t16.5 -84q8 -29 5 -60.5t-30 -41.5q-27 -16 -53 0t-45 39q-51 45 -57 102q-4 25 -10.5 50.5t-10.5 52.5q-4 6 -6 15t-12 13t-16.5 -4t-12.5 -16q-8 -10 -16 -25q-29 -51 -66 -99 t-69 -95q-18 -29 -47 -36t-56 -18q-10 -4 -18 4.5t-17 16.5q-53 53 -105 110.5t-103 112.5q-20 20 -35 49q-12 20 0 43q41 106 114.5 174t178.5 109q29 16 58.5 17t57.5 -7q27 -4 40.5 3t23.5 26q33 51 58.5 104t58.5 105q10 18 15 39.5t9 44.5q4 43 13.5 85t15.5 85 q4 23 5 45t1 47q6 29 2 58.5t-23 64.5q-18 25 -33.5 30.5t-47.5 -2.5q-35 -10 -65 -29.5t-58 -37.5q-4 -4 -9.5 -8.5t-9.5 -12.5q-10 -25 -27.5 -47t-36 -45.5t-34.5 -48.5t-25 -53q-4 -18 -9 -33.5t-9 -34.5q-16 -98 -45 -180q0 -10 -8 -31q-4 -10 -1 -26.5t-14 -26.5 q-35 -25 -73 -25q-51 0 -85 4.5t-71 40.5q-10 10 -24.5 18.5t-24.5 14.5q-18 12 -20.5 19.5zM307 254q20 -14 37.5 0t35 43t38 63.5t45.5 63.5q8 8 19.5 24.5t22.5 34t17 36t4 32.5q-43 -10 -87 -45t-75.5 -80t-49 -92t-7.5 -80z" />
<glyph unicode="3" d="M134 1052q-11 40 7 83q16 31 0 63q-6 23 3.5 39t27.5 35q47 35 94 74.5t101 74.5q43 35 90 50.5t80 19.5q70 0 114.5 -17.5t85.5 -46.5q51 -45 87 -97t73 -107q29 -49 14 -107q-10 -27 -15 -54.5t-13 -53.5q-4 -14 -9.5 -25.5t-15.5 -24.5q-37 -29 -56.5 -69.5 t-56.5 -75.5q-23 -23 -40 -43t-41 -39q-10 -8 -24.5 -18.5t-10.5 -26.5q4 -14 21.5 -17t27.5 -7q14 -4 28.5 -9.5t30.5 -9.5q66 -16 97.5 -54t42.5 -91q8 -37 6 -73t-21 -69q-12 -14 -4 -34q20 -55 -20 -103q-35 -51 -75 -100t-95 -90q-31 -25 -78 -25q-55 4 -106.5 19.5 t-88.5 58.5q-10 12 -21.5 19.5t-27.5 15.5q-29 16 -53.5 32.5t-42.5 45.5q-8 18 -22.5 32.5l-30.5 30.5q-8 4 -12.5 10t-8.5 11q-8 10 -12 21t2 26q8 8 21.5 9t23.5 -3q20 -2 33.5 -4t22.5 -5.5t19.5 -10.5t26.5 -19q6 -8 16.5 -12.5t16.5 -12.5q45 -47 98.5 -49t112.5 4 q10 0 17.5 7.5t15.5 17.5q18 29 40.5 58.5t37.5 64.5q10 14 6 32q-8 27 -20.5 51.5t-35.5 47.5q-16 27 -40.5 30t-51.5 -6q-29 -8 -45 -1t-32 26q-18 29 -46 51.5t-51 50.5q-16 14 -18 51t8 56q10 10 18 14q18 4 35 7t35 3q33 4 58.5 15.5t43.5 38.5q14 18 39 31.5t43 31.5 t25 39q10 29 26.5 56.5t30.5 56.5q16 25 30.5 53.5t25.5 56.5q4 8 7 15.5t7 15.5q4 33 -2 60.5t-47 50.5q-10 4 -21.5 12t-21.5 12q-27 18 -50.5 13t-37.5 -27q-27 -33 -55.5 -65.5t-57.5 -61.5t-49.5 -67t-38.5 -74q-20 -35 -33 -78q-8 -29 -24.5 -35t-48.5 2 q-27 6 -51.5 15.5t-47.5 27.5q-35 33 -46 73z" />
<glyph unicode="4" d="M128 735.5q-3 14.5 5 28.5q35 70 19 151q-6 29 -8.5 59t14.5 58q16 16 4 35q-8 18 -6 36.5t2 35.5q0 74 -5.5 147.5t-9.5 145.5q-4 23 5.5 29.5t37.5 -1.5q27 -10 52.5 -19t60.5 -14q8 -4 14 -8t11 -12q29 -51 38 -100.5t9 -104.5v-80t10 -75q10 -37 9 -73t-9 -73 t-4 -73.5t0 -71.5q0 -18 10 -24.5t39 -10.5q63 0 92 49q14 29 27.5 58.5t21.5 58.5q4 41 9.5 81t9.5 85q4 51 6 104t14 105q6 33 5 66.5t-5 68.5q-12 45 17.5 71.5t89.5 22.5q18 0 36.5 -3t36.5 -3q25 0 38.5 -7.5t9.5 -25.5q-10 -66 -11.5 -132.5t-13.5 -131.5 q-10 -41 -12 -83t-2 -83q0 -51 -5.5 -104.5t-9.5 -104.5q0 -37 -2 -76t-2 -75v-146t4 -145q4 -35 -3 -65t-7 -58q4 -41 7 -78t14 -78q8 -37 -17.5 -59.5t-46.5 -42.5q-8 -8 -18.5 -6t-20.5 6q-23 10 -46.5 15t-45.5 5q-16 0 -28.5 6.5t-16.5 18.5q-10 23 -21.5 41t-11.5 41 t-7 41t-17 37q-10 18 -9.5 33.5t9.5 33.5q18 37 23 72t-13 76q-8 6 -6 14t6 18q4 27 9 55.5t9 57.5q4 10 6 21.5t-6 21.5q-41 -6 -80 -9t-80 1q-45 4 -83.5 15t-67.5 38q-23 14 -44.5 27.5t-29.5 36.5q-6 14 -9 28.5z" />
<glyph unicode="5" d="M145 457q-4 18 0.5 31.5t20.5 17.5q27 10 51.5 15t50.5 -9q33 -16 45.5 -36.5t12.5 -57.5q-6 -41 10 -86q23 -74 74 -102.5t120 -6.5q35 10 64 30.5t53 43.5q12 10 23.5 23.5t21.5 19.5q47 29 53.5 74t-4.5 92q-18 55 -45.5 105.5t-70.5 95.5q-29 33 -77 50t-95 -12 q-51 -33 -103 -53q-14 -4 -25.5 -5t-21.5 13q-35 37 -68.5 72t-58.5 76q-10 23 -14 41t0 41q10 23 12 47t2 51q-4 43 -1 88t11 86q4 27 3 48.5t-23 39.5q-10 10 -8 21.5t18 7.5q45 -6 68 39q16 27 53 20h21.5t23.5 -4q33 -8 62.5 -11t58.5 5q16 4 27.5 5t21.5 5q23 0 41 4 t37 21q23 23 43 10q35 -27 73.5 -43t73.5 -45q10 -10 23.5 -18.5t9.5 -30.5q-4 -14 -22.5 -26.5t-40.5 -8.5q-25 0 -47.5 -2t-45.5 2q-29 4 -55.5 0t-56.5 -14q-29 -10 -55.5 -22.5t-55.5 -20.5q-25 -10 -49 -10q-47 0 -53 -39q0 -4 -3 -5.5t-3 -5.5q4 -53 3 -106t7 -107 q0 -23 12 -28.5t27 -1.5q29 4 68.5 12t68.5 8q61 -8 119.5 -19.5t113.5 -43.5q14 -10 31 -25.5t31 -35t26.5 -40t18.5 -37.5q37 -59 59.5 -120.5t34.5 -130.5q10 -74 -15.5 -140.5t-78.5 -113.5q-35 -37 -74 -67t-92 -46q-4 0 -9 -5l-9 -9q-41 -29 -90.5 -41.5t-100.5 -12.5 q-25 0 -49.5 9.5t-42.5 33.5q-29 41 -61.5 82t-55.5 84q-18 35 -43.5 64.5t-48.5 58.5q-33 31 -24 64q8 14 3 25z" />
<glyph unicode="6" d="M166 537q8 37 9 76.5t1 80.5t2 82t12 82q12 47 29 88t45 82q23 29 46.5 61.5t31.5 73.5q4 23 19.5 38.5t33.5 25.5q25 16 42.5 38.5t34.5 44t36.5 41t48.5 31.5q33 18 69 20.5t72 -20.5q39 -23 88 -28q23 0 23 -19q4 -12 -3 -18t-15 -6q-16 -8 -27.5 -10.5t-22.5 -10.5 q-176 -59 -243 -219q-23 -61 -49.5 -119.5t-42.5 -124.5q-4 -29 -6.5 -58.5t1.5 -57.5q0 -23 10.5 -29t28.5 10q23 14 49.5 23.5t53.5 23.5q43 27 87 24t87 -18q16 -8 30.5 -15t32.5 -13q10 -8 20.5 -15.5t18.5 -15.5q12 -10 32.5 -39t39 -63.5t32 -67.5t13.5 -49 q0 -29 2 -60.5t-2 -66.5q0 -72 -29.5 -135.5t-77.5 -122.5q-27 -25 -52 -49.5t-54 -46.5q-61 -45 -117 -11q-45 27 -90 46.5t-96 35.5q-37 16 -63.5 43t-49.5 56q-6 10 -11 21t-11 22q-74 72 -94.5 157t-24.5 181zM408.5 320.5q-5.5 -7.5 1.5 -23.5q12 -27 20 -54.5 t19 -52.5q37 -68 112 -73q55 -4 98 12t72 61q8 14 17.5 25.5t17.5 28.5q23 43 47.5 85t20.5 89q0 55 -16.5 100t-61.5 80q-57 51 -127 31q-23 -8 -43.5 -16.5t-38.5 -22.5q-41 -29 -64.5 -65t-9.5 -87q4 -8 5 -15t1 -13q0 -27 -8 -47.5t-41 -30.5q-16 -4 -21.5 -11.5z" />
<glyph unicode="7" d="M55 1311q4 10 13.5 12t17.5 2q53 0 106.5 2t106.5 -2q59 0 114.5 -5t114.5 -5q29 -4 57.5 0t55.5 20q55 27 121 4q29 -10 58.5 -18t58.5 -16q10 -4 22 -7.5t23 -11.5q41 -18 46 -42.5t-18 -65.5q-37 -61 -59.5 -132t-46.5 -141q-4 -10 -5 -23.5t-5 -29.5q0 -29 6 -36 t32 -7q23 4 43.5 7t38.5 7q27 0 48.5 -4t44.5 -10q49 -23 10 -53q-47 -47 -102.5 -75t-127.5 -9q-20 6 -32.5 7t-20.5 -5t-13 -20.5t-11 -39.5q-14 -53 -23.5 -106t-23.5 -109q-12 -55 -22.5 -109t-16.5 -110q-8 -27 -10.5 -54.5t-6.5 -51.5q-6 -63 -32.5 -84t-77.5 -4 q-16 8 -33 12t-31 12q-55 29 -67 96q0 27 -17 60q-16 29 -17 60.5t-5 66.5q-4 14 2 19t16 10q16 0 20.5 11t4.5 27q0 23 4 44.5t0 48.5q-4 12 1 19t12 12t13.5 12.5t8.5 19.5q4 29 15 58.5t19 58.5q14 47 -30 53q-53 16 -103 -4q-25 -16 -49 -13t-47 13q-18 8 -34.5 14 t-33.5 15q-23 14 0 34q23 23 54 29q59 8 114.5 22.5t118.5 6.5q37 -6 50.5 20.5t31.5 53.5q4 10 9 26.5t1 32.5q-8 35 2.5 63.5t18.5 61.5q12 37 17 57.5t0 29.5t-23.5 11t-53.5 0h-4q-35 -8 -69.5 -12t-67.5 -12q-127 -16 -233 67q-23 18 -44.5 32.5t-39.5 37.5 q-6 6 -12.5 17t-2.5 22z" />
<glyph unicode="8" d="M145.5 407q1.5 19 9 36.5t18.5 35t22 33.5q27 35 59.5 63.5t67.5 57.5q18 14 27 23.5t10 17.5t-6 18t-21 29q-27 29 -45.5 58.5t-34.5 62.5q-14 29 -21.5 61.5t-11.5 65.5q-4 37 -2 73.5t2 73.5q0 16 5 33.5t24 28.5q16 8 20 18t8 27q8 29 21.5 57.5t24.5 54.5 q14 29 47.5 41.5t68.5 1.5q10 -4 21.5 -5t21.5 -5q82 -10 155 -42t142 -79q29 -23 47 -51t6 -61q0 -14 1.5 -26.5t5.5 -23.5q14 -72 -12.5 -132t-71.5 -115q-23 -29 -43.5 -55.5t-42.5 -51.5q-23 -29 -22 -40t36 -29q37 -25 75 -49.5t70 -57.5q45 -43 65.5 -100.5 t27.5 -118.5v-14q-14 -41 -32 -82t-46 -74q-25 -23 -46.5 -50.5t-35.5 -58.5q-27 -53 -85.5 -78.5t-119.5 -21.5q-51 4 -90 26.5t-76 55.5q-59 45 -104 98t-101 101q-4 8 -11 15t-3 15q8 25 -2 49.5t-16 47.5q-8 23 -6.5 42zM332 379q0 -41 13 -74t30 -67q0 -6 7 -12.5 t11 -10.5q37 -23 75 -33t83 -6q39 6 57 39t37 64.5t37 66.5q14 29 13 50.5t-23 45.5q-37 35 -76 66t-80 57q-16 8 -27.5 9t-21.5 -9q-18 -18 -37.5 -31.5t-36.5 -31.5q-25 -27 -43 -56.5t-18 -66.5zM467 1061q-23 -106 14 -195q8 -23 25 -43q18 -25 39 -10l16 8t12 13 q27 35 53.5 72.5t30.5 97.5q0 33 11 73q6 35 -4.5 50.5t-55.5 27.5q-55 10 -90 -15.5t-51 -78.5z" />
<glyph unicode="9" d="M113 1092q-4 41 5 79.5t23 75.5q10 25 24.5 50.5t24.5 52.5q10 29 35 38t58 5q66 -8 129 -15.5t129 -19.5q18 -4 38.5 -1t38.5 7q23 4 43.5 1t34.5 -22q16 -10 30.5 -16t33.5 -2q45 8 83 -7t79 -22q29 -8 14 -39q-4 -8 -8 -17t-13 -17q-29 -29 -39 -65t-14 -73 q0 -59 -14 -111t-14 -112q-4 -55 -14.5 -107.5t-6.5 -107.5q0 -18 -4 -24q-27 -113 -39 -225.5t-29 -227.5q-4 -25 -4 -52.5t8 -54.5q4 -29 3.5 -56t-7.5 -56q-8 -25 -23.5 -35t-39.5 2q-55 23 -89 57.5t-38 98.5q-4 41 -7 81t-3 93q0 88 15 187.5t38 201.5q10 45 22.5 89 t12.5 87q6 41 -29 25q-12 -4 -20.5 -7.5t-18.5 -7.5q-80 -39 -156.5 -33.5t-139 43t-104.5 105.5t-48 154zM346 993q20 -84 107 -63q37 8 64.5 27.5t51.5 46.5q29 33 58.5 63.5t44.5 71.5q10 27 7 34t-32 11h-34.5t-32.5 4h-54.5t-48.5 -4q-78 -16 -113.5 -64.5 t-17.5 -126.5z" />
<glyph unicode=":" horiz-adv-x="397" d="M78 131q8 125 127 131q25 2 48 -10t40.5 -32.5t25 -46.5t-1.5 -46q-8 -27 -10 -54.5t-24 -43.5q-23 -18 -47.5 -10t-51.5 6q-106 -9 -106 106zM78 954q8 125 127 131q25 2 48 -10t40.5 -32.5t25 -46t-1.5 -46.5q-8 -27 -10 -54.5t-24 -43.5q-23 -18 -47.5 -10t-51.5 6 q-106 -9 -106 106z" />
<glyph unicode=";" horiz-adv-x="454" d="M145 100q0 37 13.5 68t19.5 63q10 35 45 25q23 -8 47.5 -10t48.5 -8q47 -27 71 -67t13 -95q-10 -41 -21 -78t-24 -78q-10 -33 -36.5 -52.5t-45.5 -43.5q-12 -12 -28 4q-82 45 -25 117q8 8 12.5 16t12.5 19q8 13 24 38q-18 10 -30.5 9.5t-22.5 -0.5q-74 0 -74 73zM164 954 q8 125 127 131q25 2 48 -10t40.5 -32.5t25 -46t-1.5 -46.5q-8 -27 -10 -54.5t-24 -43.5q-23 -18 -47.5 -10t-51.5 6q-106 -9 -106 106z" />
<glyph unicode="&#x3c;" d="M231 653q8 33 50 33q27 4 46 13.5t42 17.5q61 33 124.5 67.5t129.5 63.5q35 18 77.5 29.5t87.5 3.5q23 -4 38.5 -14.5t19.5 -32.5q0 -23 -11.5 -32t-27.5 -18q-41 -16 -80 -32.5t-80 -30.5q-35 -18 -65.5 -38.5t-53.5 -53.5q47 -18 93.5 -32.5t93.5 -21.5q10 -4 19 -5 t20 -5q33 -8 52 -24.5t15 -34.5q-4 -25 -24.5 -38t-42.5 -19q-47 -14 -92 8q-53 31 -107.5 45t-118.5 18q-47 4 -93 20.5t-87 53.5q-10 16 -17.5 28.5t-7.5 30.5z" />
<glyph unicode="=" d="M127 527.5q2 11.5 14 17.5q14 10 31.5 15t36.5 9q72 23 147.5 19t149.5 -4q47 0 94 -2t90 8q23 6 44.5 2t39.5 -8q33 -6 47.5 -26.5t9.5 -45.5q0 -27 -20 -47.5t-47 -15.5q-47 0 -98 2t-117 -2q-61 -8 -138 -2t-163 10q-33 0 -58.5 17.5t-54.5 31.5q-10 10 -8 21.5z M150 739q-6 41 34 64q16 10 25 10q57 0 110.5 13.5t112.5 11.5q37 -4 79 -2t77 16q37 18 73.5 14t73.5 -8q18 -4 35.5 -16.5t13.5 -38.5q0 -18 -20.5 -35.5t-42.5 -22.5q-8 0 -18.5 2.5t-20.5 2.5h-39q-90 4 -174 -15.5t-172 -38.5q-23 -4 -47.5 -9t-50.5 -1 q-18 4 -33.5 16.5t-15.5 36.5z" />
<glyph unicode="&#x3e;" d="M227 862q-14 35 25 35q16 4 30 2t37 -2q53 0 108.5 -8t107.5 -37q23 -8 44 -14.5t44 -10.5q55 -4 101 -24.5t93 -42.5q27 -10 42 -29.5t32 -38.5q23 -29 13.5 -58.5t-44.5 -39.5q-61 -18 -117.5 -51t-115.5 -66q-29 -18 -58.5 -36.5t-48.5 -55.5q-18 -27 -44.5 -46.5 t-53.5 -37.5q-41 -25 -74 -12.5t-47 57.5q-4 10 -7 19.5t-7 19.5q-10 43 2 79t55 62q47 25 84 68t78 84q14 14 9 22.5t-23 16.5q-45 16 -91.5 33.5t-89.5 33.5q-29 10 -48 31t-36 47z" />
<glyph unicode="?" d="M133 1237q-8 45 0 67.5t43 45.5q47 39 98 53q66 27 130.5 47t117.5 20q100 0 173 -24.5t134 -71.5q92 -74 101.5 -169t-37.5 -201q-51 -115 -143.5 -191t-206.5 -131q-16 -8 -33.5 -10t-34.5 -10q-41 -10 -49 -31t8 -56q16 -27 14 -54t7 -54q4 -14 2 -26.5t-17 -16.5 q-18 -10 -30.5 -1t-22.5 19q-35 45 -54.5 95.5t-29.5 109.5q-6 37 -8 76t14 80q10 37 27.5 48t54.5 7q8 0 12.5 -2t8.5 2q102 16 192 59.5t152 135.5q23 29 32 62.5t17 68.5q8 43 -17.5 72.5t-70.5 29.5q-102 2 -193.5 -23.5t-161.5 -107.5q-10 -12 -21 -20.5t-24 -18.5 q-29 -37 -70.5 -30.5t-60.5 38.5q-18 29 -31.5 56.5t-21.5 56.5zM285 219q-4 37 17.5 53.5t53.5 -0.5q29 -10 55.5 -27.5t53.5 -35.5q23 -10 22 -33t7 -39q0 -12 -2.5 -22.5t-2.5 -16.5q-10 -35 -37.5 -57.5t-56.5 -22.5q-8 0 -22.5 8.5t-27.5 20.5t-23.5 25.5t-12.5 25.5 q-8 29 -14 58.5t-10 62.5z" />
<glyph unicode="@" horiz-adv-x="1394" d="M133 457q-4 43 0 89t14 91q8 29 24.5 53.5t39.5 42.5q33 23 62.5 49.5t60.5 48.5q16 10 35.5 24.5t42.5 14.5q41 4 77.5 16.5t71.5 12.5q37 0 70 7t67 7q27 4 55.5 6.5t57.5 -1.5q66 -6 129.5 -10.5t128.5 -22.5q47 -16 88 -43t82 -56q27 -23 38 -53.5t11 -66.5 q0 -29 7.5 -57.5t11.5 -55.5q8 -37 2 -72t-21 -69q-8 -18 -19.5 -37t-15.5 -41q-4 -23 -14 -41.5t-20 -36.5q-25 -37 -49.5 -73t-57.5 -64q-45 -41 -103.5 -48.5t-119.5 29.5q-27 18 -52.5 36t-35.5 52q-8 10 -15.5 7.5t-13.5 -7.5q-41 -41 -88 -45t-98 11q-113 23 -160 106 q-16 29 -25.5 68t-7.5 78.5t17.5 76.5t48.5 66q16 10 29.5 23.5l29.5 29.5q8 8 17.5 11t17.5 8q61 12 122.5 23t125.5 -3q25 -4 48 -12t40 -27q12 -23 33 -14q43 12 69 -21q14 -14 10 -33.5t-10 -33.5q-37 -66 -53 -133.5t-20 -139.5q0 -23 11 -38t27 -25q8 -8 15.5 -6 t19.5 10q29 16 49.5 44t42.5 54q18 29 32.5 60.5t25.5 66.5q10 29 10 58.5t-4 58.5q-8 35 0 72q4 37 -7.5 70.5t-45.5 56.5q-18 10 -34 24.5t-30 28.5q-27 29 -56.5 43t-66.5 6q-23 0 -43 1t-39 5q-45 10 -82.5 -5t-72.5 -30q-14 -8 -35 -13t-41.5 -10t-39.5 -12.5 t-32 -17.5q-23 -16 -48 -29.5t-48 -29.5q-37 -25 -58.5 -60t-43.5 -71q-18 -33 -20.5 -74t5.5 -82q6 -37 4 -74t4 -73q4 -14 9.5 -25.5t15.5 -28.5q10 -18 17.5 -40.5t17.5 -41.5q23 -35 42 -68.5t54 -47.5q59 -29 116.5 -58.5t123.5 -29.5t127 28q41 16 81 34.5t85 35.5 q18 6 31.5 17.5t31.5 15.5q25 8 43 -11q10 -10 7 -20t-7 -19q-18 -41 -53 -59t-64 -41q-47 -45 -105.5 -61.5t-117.5 -32.5q-37 -10 -71.5 0t-69.5 14t-64.5 16.5t-62.5 28.5q-35 10 -61.5 26.5t-55.5 31.5q-55 29 -94 74.5t-68 101.5q-10 27 -20 51.5t-29 50.5 q-4 8 -4 15.5t-4 19.5q-23 59 -27 119.5t-8 124.5zM561 300.5q-4 -13.5 6 -24.5q10 -12 25.5 -25t42.5 -5q31 12 62.5 37.5t56 61.5t41 79t16.5 90q0 27 -9 33t-36 -8q-4 -4 -10 -7.5t-15 -3.5q-59 -18 -89.5 -60t-59.5 -85q-8 -16 -6 -32.5t-11 -26.5q-10 -10 -14 -23.5z " />
<glyph unicode="A" horiz-adv-x="864" d="M113 98q0 37 5 74t9 74q8 49 10 93t13 91q0 35 5 62.5t19 62.5q4 10 8 14t4 15q0 54 6 112l2 24q0 46 -20 93q0 18 14 41q28 23 28 55q0 10 -3 21v22q10 39 10 79t4 77q4 47 7.5 94t25.5 90q4 2 6 17q29 10 30 30.5t5 42.5q0 33 25 39q53 39 107 51q15 3 30 3 q42 0 90 -23q16 -12 34.5 -16t37.5 -15q27 -16 39 -41.5t22 -54.5q4 -23 10 -39t6 -35q2 -53 5.5 -106t7.5 -107v-33.5t2 -31.5q10 -47 12 -100.5t2 -106.5q-1 -16 -1 -32q0 -25 2 -52q3 -45 13 -86q11 -34 13 -68v-14q0 -27 -8 -55q-4 -23 -2 -42.5t2 -41.5q0 -47 8 -96.5 t16 -102.5q4 -29 5 -56.5t-1 -53.5q0 -33 -37 -60q-20 -10 -33.5 -10t-35.5 16q-39 31 -60 84q-10 39 -22 81q-5 18 -5 36q0 24 9 47q8 32 8 61q0 9 -1 18q-3 38 -7 77q0 10 -1 17t-1 20q0 29 -8.5 31.5t-34.5 -7.5q-33 -14 -65.5 -24.5t-71.5 -16.5q-10 0 -19.5 -7 t-9.5 -23q-2 -41 -12 -81q-5 -20 -5 -39.5t5 -39.5v-14q-1 -30 -7 -60q-8 -37 -8 -72q0 -27 1 -53.5t12 -52.5q4 -14 1 -26.5t-9.5 -25t-14.5 -23.5t-12 -21q0 -10 -7.5 -13.5t-11.5 0.5q-16 12 -34.5 14.5t-34.5 16.5q-14 23 -39 36t-47 30q-4 0 -12.5 6t2.5 16 q18 18 5.5 34.5t-28.5 27.5q-10 6 -12 16t-2 16zM404 708q-1 -14 -1 -28q0 -29 5 -59q0 -18 5 -24.5t23 -0.5q35 10 65.5 10t67.5 -4q16 -2 20.5 1t4.5 18v30q-2 25 -5 49.5t3 53.5q1 24 1 48q1 111 -15 221q-18 134 -35 271q0 16 -6.5 34t-18.5 34q-6 0 -10 -5t-8 -9 q-10 -29 -22.5 -58.5t-16.5 -54.5q0 -8 -2 -16.5t2 -18.5v-22q0 -39 -5 -76q-7 -47 -26 -94q-14 -33 -17 -60.5t-3 -58.5q0 -23 1 -47.5t-1 -44.5q-2 -47 -6 -89z" />
<glyph unicode="B" horiz-adv-x="1015" d="M123 1225q4 33 6 60.5t6 55.5q0 31 14.5 60t30.5 57q4 8 14.5 11.5t20.5 3.5q29 8 56.5 6t50.5 8q20 8 39.5 -13.5t23.5 -46.5q0 -4 -1 -9t1 -13q16 0 29.5 8t23.5 10q64 31 124 31h8q64 -2 135 -20q53 -14 94 -51t75 -76q28 -23 44 -55q12 -23 12 -52q0 -11 -2 -22 q-2 -23 4 -46.5t4 -41.5q-6 -74 -31.5 -134.5t-70.5 -119.5q-10 -12 -19.5 -26.5t-13.5 -33.5q-6 -27 -19.5 -40t-31.5 -25q-4 -2 -9.5 -6.5t-9.5 -6.5q-23 -27 -20.5 -39t26.5 -28q33 -27 62.5 -57.5t56.5 -71.5q29 -41 33 -84q1 -12 1 -25q0 -31 -7 -61 q-6 -59 -21.5 -111.5t-44.5 -97.5q-16 -39 -42.5 -54.5t-63.5 -21.5q-36 -6 -70 -6q-21 0 -41 2q-54 6 -111 14h-32q-16 8 -24.5 2t-8.5 -18q-2 -35 -14.5 -45t-44.5 0q-35 4 -58.5 23.5t-52.5 37.5q-29 29 -34 54.5t5 56.5q20 64 20 126v16q-3 70 -12 136q-10 42 -10 86 q0 12 1 22q3 54 12 103q5 35 5 70q-1 24 -3 49q-6 60 -37 113q-25 35 -41.5 66.5t-24.5 72.5q0 16 1 28.5t5 33.5q4 4 7.5 11t3.5 17q18 35 -11 56q-10 10 -14 25t-4 26zM424 991q0 -25 3 -49t11 -47q12 -23 13.5 -50.5t-2.5 -58.5q-6 -10 -5.5 -19t17.5 -15q29 -16 53 -11 q23 25 44.5 39.5t37.5 38.5q6 20 18.5 35.5t22.5 28.5q35 31 54.5 73.5t37.5 83.5q16 39 24.5 77t8.5 79v16q0 33 -14.5 58.5t-37 43t-50 22.5t-58.5 -3q-84 -18 -115 -86q-16 -20 -26 -38.5t-23 -41.5q-14 -40 -14 -70v-7q3 -28 3 -52.5t-3 -46.5zM440 281q0 -25 11.5 -34 t35.5 -9q20 -6 37 -8.5t39 -6.5q14 -6 30.5 -3t37.5 3q33 4 51 19.5t23 46.5q8 31 16 63.5t10 65.5q4 23 -2 49.5t-31 44.5q-18 12 -36.5 24.5t-39 21.5t-42 11t-48.5 -6q-2 -4 -6 -4h-8v4h-10q-41 0 -52.5 -10t5.5 -51q10 -12 10 -31.5t-10 -34.5q-11 -41 -17 -79 q-5 -29 -5 -58q1 -9 1 -18z" />
<glyph unicode="C" horiz-adv-x="841" d="M79 714q5 56 9 115q0 10 3 14.5t3 14.5q23 70 28 139.5t17 147.5q8 33 17.5 66.5t15.5 62.5q2 35 12.5 64.5t28.5 58.5q4 8 8 15t21 7q41 3 84 7l28 2q28 0 56 -5q12 -2 15 -3t11 1q22 6 41 6q23 0 43 -8q37 -14 82 -20q23 -2 33 -16.5t22 -32.5q25 -23 42.5 -47.5 t37.5 -49.5q16 -23 17 -39v-76.5t-4 -76.5q-6 -16 -6 -38t10 -40q4 -20 5 -38.5t5 -41.5q10 -27 -10.5 -44t-48.5 -17q-14 0 -25.5 1t-28.5 3q-25 16 -35 28.5t-45 24.5q-33 18 -36 36.5t16 49.5q12 16 17 36.5t-11 43.5q-4 4 -4 18.5v18.5q0 16 -4 36.5t-23 43.5 q-6 16 -20 34.5t-14 34.5q0 12 -28 21.5t-46 13.5q-18 0 -26.5 -9t-10.5 -20q-27 -61 -47.5 -125.5t-26.5 -130.5q0 -23 -1 -37t-5 -30q-4 -23 -6 -38t2 -38q3 -26 3 -51q0 -74 -26 -141q-4 -35 -4 -63v-54q2 -41 8 -75q2 -11 1 -23q0 -24 -7 -52q0 -18 15 -32 q27 -41 52.5 -81t47.5 -73q23 -35 57 -40q5 -1 11 0q29 0 53 24q2 10 6 21t6 22q18 29 28.5 47t35.5 41q10 16 14 35.5t6 35.5q10 20 23.5 27.5t27 7.5t27.5 -3t29 -3q37 0 52 -13.5t25 -41.5q2 -16 0 -25.5t-12 -19.5q-41 -78 -71 -158q-59 -113 -203 -141q-2 0 -10.5 -1 t-16.5 -10q-29 -6 -56 -6q-41 0 -75 14q-57 24 -102 83q-43 43 -71 95t-50 105q-29 69 -39 143q-5 37 -5 74.5t5 75.5q-5 35 -5 70q0 21 2 42z" />
<glyph unicode="D" horiz-adv-x="993" d="M76 1374q0 18 9 33.5t19 26.5q35 18 71 19t71 11h8q45 -17 87 -17h5h10q40 0 82 -7q66 -6 123 -41q25 -23 54.5 -44.5t52.5 -43.5q37 -27 82 -56.5t67 -66.5q43 -63 47 -129q8 -39 10.5 -74t12.5 -70q20 -53 24 -102t9 -104q4 -4 4 -15.5v-17.5v-24.5t-4 -16.5 q-25 -70 -44.5 -152t-50.5 -141q0 -6 -8 -12q-35 -29 -58.5 -76t-53.5 -84q-41 -45 -90.5 -81t-96.5 -77q-8 -4 -11 -7t-3 -13q-2 -25 -19.5 -33t-34.5 -16q-39 -20 -73 -25q-18 -6 -41 -6t-43.5 5t-36.5 15.5t-23 26.5q-4 39 -17 76q-7 21 -7 43q0 17 4 35q0 18 -14 26 q0 2 8 7.5t17 9.5t17.5 8t10.5 6q16 16 17 29.5t-1 33.5q-6 10 -3 25.5t5 32.5q14 51 20 105q3 21 3 43q0 34 -6 69q-11 70 -13 140q-1 39 -1 77q0 31 1 61v98.5t-4 96.5q-2 6 -3 14.5t-7 10.5q-20 49 -26 95q-3 27 -3 55q0 21 2 42q10 29 -1 59.5t-33 53.5q-12 12 -33 16 t-41.5 9t-34.5 12.5t-14 25.5zM442 855.5q-2 -13.5 2 -30.5q4 -25 5.5 -52.5t0.5 -55.5q0 -43 3.5 -85t15.5 -77q2 -27 0 -59q-6 -29 -3 -57.5t9 -58.5t10 -59.5t0 -60.5q0 -6 0.5 -10t6.5 -10q10 4 14 8t12 6q12 29 38 50.5t38 49.5q8 12 20.5 26.5t22.5 33.5 q23 25 36 52.5t29 57.5q42 76 56 156q5 28 5 57q0 53 -18 109q-2 14 -3 25.5t-5 21.5q-10 51 -21 96t-20 92q-14 47 -40.5 81t-67.5 63l-22.5 18t-26.5 19q-8 2 -12.5 8t-8.5 10q-20 10 -43.5 0t-21.5 -27q4 -29 1 -50t-4 -42q0 -27 -2 -51.5t2 -46.5q2 -26 3 -50 q0 -19 -1 -37q-3 -42 -8 -91q0 -16 -2 -29.5z" />
<glyph unicode="E" horiz-adv-x="798" d="M88 1133q0 6 2 15t6 19q23 35 40.5 78t37.5 84q16 12 28.5 20.5t26.5 8.5q29 -6 42.5 8t25.5 25q10 10 16 18t17 14q2 10 4 22.5t16 14.5q18 0 37 3t37 -3q43 -16 88 -30.5t86 -38.5q10 -2 16.5 -2h14.5q37 0 55 -25q16 -14 20.5 -21.5t-6.5 -27.5q-8 -8 -14 -14.5 t-6 -16.5q-8 -52 -54 -52q-12 0 -26 3q-49 0 -90 -22.5t-78 -51.5q-23 -18 -42 -42.5t-36 -49.5q-31 -39 -37 -80t-10 -84q0 -31 11.5 -55.5t23.5 -48.5q2 -8 9 -5t22 3q16 -2 32 -2q32 0 61 8q44 12 93 12q10 0 24.5 -1t20.5 -9q16 -6 33.5 -13.5t26.5 -23.5 q10 -31 25 -57.5t11 -61.5q-10 -29 -34.5 -48t-61.5 -28q-27 -4 -50.5 -7t-53.5 1q-29 4 -38 -2t-14 -28q-16 -35 -30 -52q-10 -25 -19.5 -45t-9.5 -47q0 -12 -4 -24.5t-10 -26.5q-8 -29 -7 -50.5t5 -45.5q2 -25 3 -47.5t1 -38.5q0 -8 1 -15.5t5 -11.5q14 -31 28.5 -37 t41.5 11q41 33 84 55t83 49q23 12 45.5 6t47.5 -6q10 0 16 -9t6 -20q0 -6 -5 -14t-11 -18q-10 -16 -21.5 -32t-23.5 -26q-20 -29 -47 -49t-41 -43q-23 -27 -51.5 -37t-57.5 -10q-39 0 -76 5t-69 22q-74 27 -117 78t-53 122q-8 49 -12.5 95.5t-4.5 97.5q0 57 6.5 114.5 t34.5 116.5q8 14 13.5 27.5t9.5 23.5q8 20 12 31.5t3 21t-8 17.5t-19 25q-73 80 -101 176q-16 54 -16 112q0 46 10 93z" />
<glyph unicode="F" horiz-adv-x="843" d="M137 1450q-14 12 6 23q14 2 15 18l6 15t10 10q14 4 23.5 10t19.5 2h33q31 8 61 0q23 -12 43.5 -8t40.5 12q23 2 39.5 6t32.5 10q18 10 46 8t46 13q14 12 37 0q53 -20 111.5 -32.5t117.5 -25.5q8 -4 24.5 -6t33.5 -12q16 -2 28 -14q10 -4 12.5 -13.5t2.5 -13.5 q0 -23 -27 -22q-18 -6 -32.5 -9.5t-35.5 0.5q-38 14 -76 14q-1 -1 -3 -1q-40 0 -74 -4q-41 -6 -79 -9.5t-77 -7.5q-29 -8 -54.5 -12t-53.5 -12q-20 0 -27 -27q-8 -41 -11 -83t-3 -91v-42t-4 -46q0 -27 4 -37q4 -41 7 -82t15 -80q4 -10 10.5 -16t22.5 -11q25 -8 52.5 -9 t56.5 -5q16 -2 33.5 -2t35.5 -4q2 0 4 -1t11 -7q20 0 20 -21q6 -4 1 -12t-15 -16q-12 -4 -23.5 -8.5t-25.5 -4.5q-29 -10 -56.5 -14t-54.5 -6q-27 -4 -32 -10t-5 -37q-2 -16 -2 -38t-2 -38q-10 -12 -5 -28.5t7 -28.5t3 -30.5t1 -29.5q-2 -31 3 -58.5t9 -51.5 q2 -12 3.5 -27.5t5.5 -28.5q0 -12 1 -26.5t5 -24.5q8 -35 11 -69.5t11 -63.5q0 -16 -1 -26.5t-9 -18.5q-4 -31 -27 -29q-14 10 -34.5 17.5t-40.5 11.5q-25 4 -38.5 18.5t-23.5 36.5q-12 27 -17 53.5t-1 55.5q2 23 0 44t-6 38q-8 16 -10.5 28.5t-2.5 22.5q2 2 2 6t-2 4 q-16 12 -12 27.5t6 25.5q6 23 7 40.5t-1 39.5q-4 14 -4 28.5t-10 31.5v6q10 16 4 29.5t-12 19.5q-12 18 -11 24.5t19 24.5q-6 10 -10 16.5t-15 14.5q-14 16 -16 31.5t0 29.5q2 23 7 37.5t5 30.5q-8 6 -7 13t11 9q14 10 16.5 16.5t-18.5 18.5q-14 0 -14 27q0 23 -2 43t-10 43 q-6 6 -6 10q2 10 2 19q0 31 -25 55q-2 0 -2 10q-10 59 -19.5 115.5t-9.5 116.5q6 14 6 27q0 19 -12 34z" />
<glyph unicode="G" horiz-adv-x="1015" d="M94 522q0 96 8.5 189.5t28.5 189.5q4 45 17.5 92t17.5 92q4 16 13 25.5t14 24.5q20 59 49.5 109t50.5 106q10 29 29.5 46t46.5 31q14 10 27.5 7.5t25.5 -11.5q18 -10 37.5 -22t36.5 -23q14 -6 26.5 -15t28.5 -9q55 -10 90 -46t66 -81q27 -39 27 -89q0 -11 -1 -22 q-2 -20 -2 -40q0 -53 12 -105q4 -19 4 -39t-4 -39q0 -14 -2 -26.5t-16 -20.5q-35 -14 -59 10q-20 14 -27 37q-16 27 -32.5 48.5t-33.5 47.5q-10 10 -13 23.5t-3 25.5v31.5t2 28.5q1 7 1 14q0 38 -18 74q-22 43 -57 63q-12 8 -23 8q-18 0 -36 -18q-37 -37 -64 -88 q-23 -35 -42 -74t-29 -86q-14 -41 -31 -83q-15 -34 -15 -72q0 -8 1 -17q0 -41 -11.5 -83t-15.5 -83q-5 -58 -5 -114q0 -35 2 -69q5 -89 40 -179q18 -37 40.5 -63.5t57.5 -45.5q12 -10 28.5 -18t31.5 -19q27 -10 45 -6t33 31q16 29 29.5 56.5t29.5 56.5q0 4 3 7t3 9 q-1 10 -1 20q0 49 16 95q20 57 34 110q10 35 -5 54.5t-50 11.5q-45 -6 -90 -15.5t-92 -9.5q-23 0 -37.5 2t-22.5 8.5t-13 18.5t-11 33q-4 6 -4 14q0 16 -8.5 32.5t-0.5 31.5q10 14 26.5 10t31.5 0q25 6 49 12t47 14q29 8 47 0q63 -16 127 -34.5t125 -34.5q31 -10 38 -19.5 t3 -40.5q-4 -23 2 -42t18 -35q20 -45 25.5 -90.5t13.5 -92.5q4 -63 10.5 -126.5t16.5 -127.5q4 -33 15.5 -66.5t23.5 -64.5q9 -33 9 -65q0 -25 -5 -49q-8 -33 -27 -15q-41 18 -68.5 41t-41.5 64q-16 35 -26.5 66.5t-24.5 66.5q-4 8 -6.5 14t-8.5 8q-8 0 -10 -4t-8 -8 q-47 -45 -106 -58q-44 -9 -90 -9q-14 0 -29 1q-31 0 -55.5 12.5t-49.5 22.5q-66 33 -121 76t-76 115q-20 70 -35.5 138.5t-17.5 137.5z" />
<glyph unicode="H" horiz-adv-x="909" d="M83 684q3 6 19 16q25 8 29 12.5t4 26.5q-2 20 -1 32.5t9 29.5q4 10 0 26q-10 16 -10 40v46q2 96 6 189.5t6 183.5q0 23 -1 37t-1 29q-6 23 1.5 30t27.5 7q12 0 25.5 -3.5t25.5 -5.5q35 -6 35 -47q2 -49 12 -101q6 -34 6 -70q0 -19 -2 -38q-8 -27 -7 -59.5t12 -63.5v-16 q-9 -30 -9 -59q0 -17 3 -33q8 -45 8 -92q0 -2 2 -9.5t2 -15.5q8 -27 15 -32t32 -3q35 8 66.5 14.5t66.5 14.5q29 4 49.5 5t48.5 5q31 8 31 39q4 12 5 27.5t1 27.5q-1 24 -1 48q0 55 6 112q9 82 11 162q5 44 5 84q0 42 -27 84q-4 25 22 25q20 0 43 1t46 3q27 0 48 -15.5 t46 -27.5q4 -4 2 -12.5t-2 -16.5q-1 -16 -1 -33.5t1 -36.5q2 -12 2 -22v-19q-2 -59 -3 -113.5t-7 -107.5q-10 -33 -11.5 -61.5t-1.5 -61.5q0 -23 3 -45t20 -45q10 -8 15 -24.5t-5 -28.5q-16 -35 -17 -73v-15q0 -30 3 -60q0 -55 1 -109t7 -108q6 -47 6 -95v-95 q0 -23 -14.5 -36t-18.5 -36q-2 -6 -11 -4t-15 2q-41 10 -71 31.5t-40 71.5q-15 59 -23 121q-5 41 -5 83q0 22 1 45q0 39 -8 79t-14 81q-4 20 -10.5 25.5t-28.5 5.5q-27 0 -51 -2t-51 -2q-33 -2 -70 -2t-76 -10q-16 -4 -23.5 -10.5t-2.5 -18.5q2 -16 1 -31.5t-6 -32.5 q-7 -22 -7 -43q0 -28 12 -55q10 -41 12 -85t2 -91q0 -30 3 -60q1 -13 1 -27q0 -19 -2 -40q-2 -16 -9 -31.5t-12 -38.5q-12 -8 -26.5 -10t-26.5 10q-16 12 -32.5 26.5t-28.5 25.5q-12 16 -19.5 31.5t-5.5 37.5q6 29 8 53.5t13 49.5q0 8 -1 15t-1 11q-16 47 -20.5 92t-4.5 88 q0 23 6 44.5t0 43.5q-2 25 -8 50.5t-31 42.5q-16 10 -13 16z" />
<glyph unicode="I" horiz-adv-x="821" d="M88 1354.5q-2 7.5 2 21.5q10 4 15.5 2t13.5 -2q16 -8 28.5 -11t28.5 -7q29 -5 57 -5q42 0 82 11q43 14 89.5 22.5t93.5 18.5q25 8 49 8q15 0 29 -3q38 -7 73 -19q8 0 10.5 -1t4.5 -1q23 -10 34 -28t11 -40q-2 -16 -17.5 -26.5t-32.5 -14.5q-10 -4 -17 -4h-21 q-25 4 -41.5 -7.5t-38.5 -21.5q-10 -4 -11.5 -14t-1.5 -21q4 -10 4 -24t5 -27q4 -23 4 -41v-30q-6 -45 -6 -87.5t6 -82.5q1 -12 1 -25q0 -19 -2 -39q-3 -33 -8 -65q-12 -58 -12.5 -115.5t12.5 -116.5q4 -12 2 -28.5t-6 -32.5q0 -33 -7 -65t-14 -63.5t-13 -64.5 q-3 -17 -2 -34q0 -15 2 -31q0 -20 2 -42t-2 -40q0 -23 8 -30t30 -15q23 -4 51.5 -5.5t55.5 -3.5q6 0 13 -1t12 -7q41 -16 44 -33.5t-26 -48.5q-25 -29 -58.5 -44t-74.5 -15q-28 3 -60 3h-17h-3q-40 0 -76 24q-12 4 -22.5 3t-24.5 -1q-47 10 -91 29.5t-91 33.5 q-10 2 -17.5 8.5t-9.5 18.5q23 16 48.5 23t54.5 7t45 2.5t24 10.5t9 26.5t1 53.5q-2 53 -2 107q-1 46 1 92q4 100 26 200q4 29 5 61.5t1 65.5q8 57 10 113.5t5 109.5q3 41 3 79q0 19 -1 39q-2 56 -5 114q-2 27 -20 36t-43 -2h-12q-20 -12 -31.5 -19t-20 -6t-17.5 9t-23 25 q-31 20 -48.5 46.5t-42.5 53.5q-2 6 -6 10t-4 10q-4 6 -6 13.5z" />
<glyph unicode="J" horiz-adv-x="821" d="M123.5 812.5q3.5 33.5 21.5 57.5q2 6 9.5 10.5t13.5 4.5h102q2 0 8.5 -3t8.5 -8q14 -25 25.5 -51t-1.5 -59q-6 -28 -6 -52v-12q2 -30 10 -59q10 -29 12.5 -53.5t2.5 -48.5q0 -23 5 -42.5t9 -37.5q12 -49 18 -84q2 -35 19.5 -63.5t36.5 -57.5q2 -2 10 -4t18 -4 q41 -20 54.5 -15t23.5 48q10 53 20 103q8 36 8 73q0 14 -1 28q0 6 2 13.5t-2 11.5q-9 54 -9 104v10v16q0 48 -5 95q-2 45 -2 85t-11 81q0 27 -6 54.5t4 52.5q4 25 -10 38q-2 20 -2 37t2 31q10 29 9 57.5t-9 59.5q-4 66 -16.5 131t-22.5 131q-6 55 -41 102q31 4 57.5 6.5 t49.5 2.5q41 -4 54 -13.5t25 -54.5q18 -53 22.5 -107.5t14.5 -105.5q12 -45 19.5 -89t7.5 -85q-4 -41 -4 -80t-12 -78q-5 -18 -5 -38q0 -12 2 -25q5 -35 9 -66q0 -47 3 -94t7 -90q0 -14 2 -23.5t2 -17.5t2 -18.5t-2 -16.5q-4 -23 -4 -48.5v-47.5q0 -23 1 -49.5t9 -48.5 q-4 -53 -4 -107.5t-12 -103.5q-8 -16 -11 -27.5t-14 -28.5q-6 -16 -12 -31.5t-8 -33.5q-14 -39 -55 -56q-17 -8 -33 -8q-22 0 -43 15q-23 20 -47.5 34.5t-46.5 36.5q-6 4 -15.5 11.5t-13.5 17.5q-27 10 -48.5 26.5t-37.5 32.5q-10 10 -19.5 15.5t-19.5 9.5 q-35 20 -52.5 32.5t-24.5 26t-7 32.5v54q0 8 3 12.5t3 8.5q8 29 9 48t-3 42q-12 53 -12 104.5v106.5q0 23 -3 42t-22 36q-23 25 -19.5 58.5z" />
<glyph unicode="K" horiz-adv-x="909" d="M82 1213q-2 12 2 18t16.5 7t34.5 1q7 1 14 1l60 -14q37 -16 72 -26q18 -4 20 -17.5t2 -27.5q1 -20 1 -39q0 -38 -5 -78q-8 -58 -8 -116v-121q25 4 34 13t19 20q47 66 100.5 129t94.5 141q4 6 12 14t12 19q41 29 61.5 65.5t43.5 81.5q12 35 29.5 62.5t31.5 56.5q0 2 5 4 t5 8q6 4 7.5 11.5t3.5 13.5t6 11t14 7q35 8 60.5 14.5t52.5 -4.5q6 0 12 -1t12 -1q41 -12 49.5 -27.5t-16.5 -49.5q-16 -29 -30.5 -54.5t-26.5 -54.5q-8 -25 -23.5 -50.5t-25.5 -47.5q-10 -35 -24 -67q-11 -25 -12 -56q0 -8 1 -17q0 -10 -10.5 -20t-14.5 -25 q-27 -27 -44 -56.5t-34 -61.5q-4 -10 -10 -19.5t-16 -13.5q-25 -20 -41.5 -46t-30.5 -48q-14 -29 -30.5 -56.5t-41.5 -50.5t-24.5 -38t22.5 -44q59 -68 110.5 -143.5t104.5 -149.5q76 -109 168 -190q12 -6 23.5 -15.5t7.5 -17.5q-10 -14 -22.5 -24.5t-26.5 -10.5 q-16 0 -32.5 -3l-33 -6t-33 -2t-32.5 11q-35 12 -59.5 28.5t-47.5 39.5q-131 145 -223 309q-10 16 -21.5 34.5t-31.5 27.5q-20 -25 -35.5 -51.5t-34.5 -53.5q-18 -18 0 -41q8 -18 10 -38.5t-8 -39.5q-4 -23 2 -46t6 -46q4 -20 9.5 -40.5t5.5 -39.5q2 -16 -6.5 -31.5 t-21.5 -25.5t-29.5 -14t-30.5 4q-43 23 -78 54.5t-55 82.5q-2 8 -4.5 22.5t1.5 28.5q11 33 11 67q-1 9 -1 17q-4 43 -7 86q-1 18 -1 37q0 37 3 77q4 58 12 118q1 53 1 106v54q-1 80 -15 157q-10 68 -12.5 130t-6.5 130v23q-6 23 -8 35z" />
<glyph unicode="L" horiz-adv-x="909" d="M104 1458q10 12 17.5 14.5t13.5 0.5q22 -10 45.5 -10t48.5 10q16 4 26.5 -1.5t10.5 -21.5t6.5 -26.5t26.5 -20.5q2 0 2 -2q29 -23 34 -35t7 -51q10 -39 11 -81t5 -77q0 -57 -3 -112.5t-13 -110.5q0 -4 5 -6t-5 -8q-14 -16 -10 -36t4 -38q0 -8 1 -22.5t-5 -26.5 q-6 -10 -5 -21.5t13 -21.5q2 -4 2 -12.5v-10.5q-2 -18 -2 -35.5t2 -36.5q0 -39 2 -77.5t16 -77.5q0 -20 -2 -29q-19 -25 -19 -45q0 -8 3 -16v-4l-2 -4q-12 -14 -10 -25.5t24 -15.5q4 -4 2 -11.5t-14 -11.5q-12 -20 -2 -51q10 -18 13 -38t7 -40q4 -12 7.5 -15t21.5 -3h72 t74 2q55 6 110 7t113 1q12 0 29.5 -5t27.5 -10q23 -10 33 -21t4 -34q0 -4 -1 -11t-5 -11q0 -10 -6 -13.5t-11 -3.5q-33 4 -60.5 -1t-61.5 -7q-47 -2 -96.5 -4t-96.5 -14q-47 -10 -85 -25.5t-64 -52.5q-4 -10 -15.5 -12.5t-21.5 0.5q-10 0 -17.5 1t-11.5 1q-12 6 -23.5 8 t-21.5 2q-33 -4 -43 14q-12 12 -24.5 20.5t-12.5 26.5q0 12 -8 23.5t-31 13.5q-14 0 -14 23q-2 37 -7 71q-2 13 -2 27q0 21 5 43q3 28 3 56t-3 55v41q0 34 1 68v23q0 23 -1 46v28q8 59 8 120t10 120q6 33 7 62.5t1 60.5q2 55 3 109.5t10 107.5q0 23 2 39t6 35q2 10 2 20v19 q0 10 -1 16t-1 17q0 96 -60 161z" />
<glyph unicode="M" horiz-adv-x="1161" d="M84 125q10 12 10 39v22q0 74 12 146q14 82 17 170q6 41 10 82q2 20 2 43t-2 47q-2 25 3 54.5t-15 55.5q-2 0 -2 4v7q16 20 11 46.5t1 55.5q2 8 2 16q-10 12 -11 24.5t1 25t6 23.5t4 24q4 23 7 48t20 50q2 14 1 28.5t1 30.5q4 20 5 42t17 42q4 6 3 17.5t-1 21.5 q0 6 -3 11.5t-3 10.5t4 7t19 2q14 0 14 20q-6 25 -1 45.5t16.5 37t26.5 31.5t30 32q20 37 53 59.5t74 40.5q14 2 28.5 5t28.5 3q59 0 94 -23.5t51 -70.5q8 -25 16.5 -44t8.5 -42q12 -4 15.5 3t7.5 12q35 53 83 88.5t101 68.5q41 25 86 25h12q51 -4 101 -23q20 -2 30.5 -19.5 t12.5 -33.5q12 -48 12 -94.5t-12 -91.5q-10 -29 -11.5 -54.5t-1.5 -48.5q-4 -39 -7 -74.5t-7 -66.5q0 -18 2 -29.5t-4 -21.5q-18 -29 -21.5 -54.5t-3.5 -50.5q6 -82 9.5 -160.5t13.5 -156.5q0 -18 -6 -31.5t-8 -32.5q-6 -16 -1 -32.5t15 -34.5q15 -40 15 -83q0 -24 -5 -50 q-5 -51 -5 -98v-15q1 -54 13 -115q8 -6 10.5 -17t0.5 -24q-16 -53 -60 -53q-19 0 -43 10q-8 6 -18.5 9.5t-20.5 7.5q-16 10 -34.5 29.5t-32 42t-19.5 46t0 41.5q10 25 13.5 48.5t3.5 52.5q4 47 9 92q4 32 4 65q0 13 -1 27v14q18 29 19 56.5t-3 60.5q0 20 -2 38t2 30 q0 31 3 57.5t20 46.5q8 16 0 33q-14 16 -15.5 35.5t-1.5 36.5q2 43 2 84t7 82q13 50 13 99v19q-1 25 -1 49q0 33 2 64v111q-4 25 -15.5 27.5t-27.5 -9.5q-14 -16 -29.5 -30.5t-23.5 -39.5q-16 -45 -31.5 -90t-20.5 -96q-2 -43 -14 -89t-24 -91q-16 -62 -16 -129q0 -17 1 -33 q0 -45 -9 -88t-13 -84q-10 -47 -21.5 -96t-15.5 -99v-11t-4 -13q-2 -37 -20.5 -41t-51.5 12q-16 16 -35.5 32.5t-36.5 35.5q-18 18 -21 30.5t9 34.5q16 25 22 59q2 11 3 22q0 22 -9 44q-4 68 -8 134.5t-4 131.5q0 35 -2 71t-4 67q-8 52 -8 103q0 15 1 31q1 13 1 26 q0 53 -10 106q-10 27 -16.5 50t-20.5 46q-18 -10 -22.5 -21.5t-4.5 -21.5q-10 -45 -28.5 -85t-22.5 -83q0 -10 -1 -19t-5 -18q-17 -51 -19 -104q-1 -29 -1 -59q0 -23 1 -46q4 -14 2 -28.5t-2 -24.5q-8 -29 -8 -55q0 -11 1 -21q5 -34 5 -75q2 -45 2 -89t-28 -90 q-10 -14 -12.5 -27t-2.5 -26q0 -67 -7 -135q-4 -43 -4 -86q0 -24 1 -49q2 -41 6 -88q3 -31 3 -63q0 -16 -1 -31q0 -12 -3 -29.5t-5 -30.5q-12 -37 -20.5 -40t-42.5 10q-39 10 -70 28.5t-72 34.5q-31 6 -16 39z" />
<glyph unicode="N" horiz-adv-x="1146" d="M147 1260.5q7 13.5 41 23.5h23q37 0 68.5 1t66.5 7h4q34 0 53 -32q0 -10 1.5 -14.5t3.5 -12.5q10 -35 23 -73t30 -73q0 -8 1 -15t1 -15q0 -59 27.5 -109.5t50.5 -95.5q61 -86 110 -177t84 -190q8 -16 14.5 -35.5t18.5 -39.5q16 23 21.5 44t23.5 31q10 10 10 22.5v29.5 q-10 0 -18 -2.5t-4 14.5q8 10 10 20.5t6 14.5q6 16 8 36.5t-2 32.5q-4 16 -5 35t-4 36t-9 33.5t-21 28.5q-10 37 -26 73q-13 29 -14 66q0 9 1 19q0 35 2.5 75t2.5 81q0 4 -1 14t-10 19q-8 20 -10 38.5t21 34.5l2 2q6 27 -7 35q-16 2 -15 -8t-11 -12q-2 25 -5 47t-20 45 q-2 4 -1 12t1 12q10 20 17.5 39t5.5 41q0 16 22 25q10 4 21.5 6t27.5 -2q29 -4 53.5 -7t51.5 -5q29 -10 39 -23.5t-2 -42.5q-4 -14 -7 -23.5t1 -19.5q21 -33 21 -66q-1 -3 -1 -7q-2 -36 -12 -68q-8 -56 -8 -111q0 -156 61 -303q10 -27 11 -53.5t-1 -50.5q-4 -23 -5 -47.5 t-1 -42.5q3 -78 9 -156q2 -34 3 -69q0 -44 -4 -87q0 -31 5.5 -61.5t3.5 -61.5q0 -25 6 -45q18 -31 16 -59.5t-6 -56.5q-8 -23 -15.5 -27t-25.5 -2q-23 8 -43 18.5t-37 26.5q-16 4 -29.5 13t-27.5 16q-14 0 -24.5 5t-22.5 13q-10 10 -17.5 24.5t6.5 28.5q8 14 4 26.5t-6 22.5 q-37 59 -70.5 120t-68.5 120q-16 47 -32.5 95t-32.5 96q-20 49 -44 93t-57 87q-27 35 -52.5 71.5t-47.5 79.5q0 14 -21 17q-2 -14 4.5 -36t6.5 -38q-10 -35 -11.5 -69.5t-3.5 -71.5q-2 -29 -2 -57q0 -22 1 -42q3 -48 5 -98q10 -63 10 -127v-7q0 -68 -12 -128q-4 -23 -4 -47 q0 -16 2 -31q4 -39 4 -78q0 -2 5.5 -4t5.5 -10q0 -20 -7.5 -38.5t-21.5 -27.5q-16 -12 -31.5 -4t-32.5 15q-23 14 -41 34.5t-28 47.5q-10 4 -16.5 10t-16.5 18q-14 12 -19 31.5t-3 42.5q8 27 10 55.5t3 57t3 56.5t10 56q5 35 5 69q0 31 -4 61q-9 64 -23 130q0 10 -2 20.5 t-2 24.5q0 47 2 95q1 16 1 31q0 31 -3 59q-3 20 -3 40t3 38q6 38 16 77q3 23 3 46q0 11 -1 22q-2 33 -18 61q-12 37 -5 50.5z" />
<glyph unicode="O" horiz-adv-x="884" d="M113 898q2 48 2 91q0 25 16 29q14 16 22.5 28.5t8.5 34.5q-4 14 5 22.5t19 18.5q31 18 43 62q4 10 17.5 20t21.5 25q0 4 5.5 6t9.5 2q33 8 51 6q27 0 49.5 7t48.5 14q23 5 44 5q74 0 122 -63q27 -33 46.5 -63.5t31.5 -65.5q8 -29 20.5 -55.5t16.5 -50.5q0 -18 6 -34.5 t16 -29.5q12 -20 17.5 -33.5t9.5 -37.5q4 -31 6 -68t12 -72q8 -23 8 -43v-43q2 -29 -2 -60.5t-20 -64.5q-4 -10 -4 -25.5v-27.5q-4 -35 -8 -63.5t-6 -59.5q0 -6 -6.5 -12t-6.5 -8q0 -88 -30.5 -151.5t-96.5 -119.5q-6 -18 -30 -18h-66t-66 4q-45 10 -75.5 31.5t-61.5 56.5 q-45 35 -71.5 82t-36.5 102q0 4 -5.5 8.5t-5.5 6.5q-12 25 -15 52.5t-1 53.5q0 14 -3 27.5t-13 24.5q-2 8 -2 17v17q-14 49 -20.5 103.5t-14.5 113.5q-4 18 -6 40t10 36q8 16 0 27q-12 41 -12 83v12zM289 758q4 -31 3 -57.5t-1 -57.5q2 -29 1 -58.5t1 -56.5q10 -41 18 -88 t19 -90q4 -4 5 -14t5 -21q8 -29 11 -55.5t20 -48.5q10 -20 25.5 -35.5t23.5 -38.5q0 -2 3 -6t5 -4q14 -8 25.5 -13t25.5 -16q6 -2 14.5 -1t16.5 12q16 10 28.5 25.5t14.5 35.5q4 20 5 35.5t9 34.5q8 29 14.5 56.5t16.5 53.5q6 23 14.5 45.5t14.5 46.5q10 42 10 84 q0 12 -1 22q-3 52 -3 105q0 25 -3 51.5t-3 53.5q4 10 1 22.5t-10 24.5q-16 23 -29.5 41t-23.5 35q-12 27 -28 28q-20 2 -21 29q0 6 -2 12t2 8q6 20 -1 40t-17 36l-14.5 14.5t-12.5 18.5q-16 16 -49 22.5t-53 -8.5q-27 -14 -37 -37.5t-13 -54.5q-8 -25 -17 -55.5t-11 -59.5 t4 -58.5t-6 -57.5z" />
<glyph unicode="P" horiz-adv-x="940" d="M156 1507q-4 20 2 28.5t22 14.5q14 10 31.5 13.5t36.5 1.5q23 -4 46 1t50 15q16 0 29 12q10 0 20 -8t8 -20q-12 -41 -13 -81t-1 -81q0 -16 -3 -32t1 -36q16 4 23.5 12.5t11.5 14.5q41 44 87 62q44 18 87 17h5q46 -1 90 -19.5t81 -47.5q52 -37 72 -89q12 -32 12 -68 q0 -22 -4 -46q-4 -10 -4 -17v-11q8 -40 8 -77q0 -36 -8 -70q-16 -70 -41 -142q-6 -23 -15.5 -46.5t-13.5 -49.5q-16 -98 -88 -174q-28 -38 -66 -54q-20 -9 -43 -8q-19 0 -40 6h-11q-16 14 -33.5 23.5t-37 15.5t-39 12.5t-37.5 16.5q-8 -10 -8 -20.5v-20.5v-244v-59.5 t-2 -54.5v-68q4 -29 4 -56.5t-2 -49.5q-2 -48 -41 -48q-8 0 -17 2q-35 10 -60.5 25.5t-49.5 38.5q-16 20 -12 55q10 33 10 69t-4 68q-5 41 -5 80t5 76q10 58 10 112q0 15 -1 27q-3 66 -9 131q-4 27 -4 49.5t-15 45.5q6 21 6 42q0 12 -2 26q-2 12 -2 24q0 24 8 47 q6 20 7.5 42.5t1.5 45.5q0 55 -1 107.5t-5 99.5q0 31 -1.5 56.5t-3.5 51.5q-10 53 -14 105.5t-18 105.5zM404 903.5q-2 -14.5 4 -24.5q10 -41 30.5 -71t48.5 -56q4 -4 7.5 -10.5t15.5 -2.5q14 10 31.5 6t38.5 3q14 4 24 10t23 24q10 18 17 33.5t13 38.5q23 72 30 139t11 137 v16q0 28 -5 55q-7 34 -13 67q-21 55 -61 55q-15 0 -33 -8q-16 -4 -27.5 -20.5t-23.5 -32.5q-18 -35 -32 -74t-26 -76q-14 -29 -28.5 -56.5t-20.5 -62.5q0 -16 -5 -31.5t-11 -33.5q-6 -10 -8 -24.5z" />
<glyph unicode="Q" horiz-adv-x="915" d="M96 518v90q-1 30 -1 59.5t1 60.5q2 60 13 120q4 35 12 69.5t14 71.5q29 78 56.5 148.5t62.5 142.5q8 20 19.5 40.5t19.5 43.5q2 23 8 31t33 8q30 -4 62 -4q27 0 54 3q60 7 117 21q11 2 21 2q33 0 63 -19q39 -26 56 -60q14 -47 24 -91.5t35 -80.5q23 -20 27 -43t6 -41 q0 -35 1 -67t11 -60q10 -31 8 -62t-8 -65q-10 -90 -29.5 -176.5t-31.5 -172.5q-2 -25 -9.5 -40t-11.5 -37q-6 -22 -6 -43q0 -17 4 -34q8 -38 18 -79q23 -117 97 -197q10 -6 20 -17t0 -28q-8 -18 -28.5 -25t-36.5 -3q-35 14 -65 28.5t-52 44.5q-4 10 -15.5 22.5t-21.5 24.5 q-16 23 -34.5 28t-45.5 -5q-44 -13 -92 -13q-15 0 -31 1q-65 6 -125.5 34.5t-108.5 77.5t-75 119q-16 41 -27 83q-8 35 -8 74v15zM273 580q-2 -17 -2 -33q0 -35 10 -70q2 -10 2 -21.5v-19.5q6 -76 48 -131t95 -67q14 -6 25.5 -2t23.5 12q4 12 10.5 24.5t10.5 28.5 q8 31 20 60.5t21.5 61.5t14.5 65q3 19 3 38q0 15 -2 31q-2 4 0 17.5t10 17.5q25 14 25 53q16 51 20 96q9 45 9 85v8q-1 45 -19 86q-14 39 -15 79.5t-3 75.5q0 23 1 43.5t-3 36.5q-20 39 -25 88v9t-2 8q-14 29 -35 12q-23 -10 -41 -27.5t-29 -44.5q-41 -106 -94 -211 q-10 -12 -14 -26.5t-8 -28.5q-10 -35 -16.5 -65.5t-14.5 -61.5q-4 -31 -13.5 -60.5t-9.5 -62.5q1 -19 1 -38q0 -34 -4 -66z" />
<glyph unicode="R" horiz-adv-x="929" d="M86 1169q-18 25 0 43q16 10 36.5 25.5t43.5 19.5q10 0 23.5 2.5t23.5 12.5q33 10 55.5 6t48.5 -39l5.5 -11t7.5 -16q4 -10 13 -11t19 9q8 2 15.5 7.5t17.5 7.5q41 35 84 60.5t99 35.5q15 3 32 3q33 0 70 -14q55 -20 90 -67q39 -76 61 -153q14 -51 14 -96q-1 -18 -3 -38 q-8 -62 -11 -125q-2 -41 -23.5 -70.5t-35.5 -60.5q-16 -37 -40.5 -69.5t-51.5 -61.5q-12 -20 -37 -26t-47 -17q-27 -6 -29 -13t13 -26q18 -18 29.5 -36.5t27.5 -42.5q2 -10 4 -22.5t12 -20.5q35 -45 51.5 -95.5t32.5 -105.5q4 -12 6 -26.5t7 -28.5q16 -29 15 -59t13 -62 q4 -16 -5 -27.5t-30 -5.5q-53 20 -92 50t-49 91q-10 53 -29.5 109.5t-44.5 109.5q-27 45 -56.5 90.5t-76.5 79.5q-10 2 -17 6.5t-16 4.5q-23 2 -30.5 -5.5t-12.5 -23.5q-2 -23 -4 -48t-2 -54q7 -33 7 -72v-10v-15q0 -37 4 -71q4 -26 4 -50q0 -20 -2 -38q-6 -41 -7 -80 q-4 -29 -40 -27v10q-25 6 -47.5 26.5t-39 47.5t-24.5 56.5t-2 54.5q1 20 1 43.5t-1 48.5q-13 48 -13 96v17q3 56 15 112q4 23 2 40t-12 42q-10 14 -15.5 31.5t4.5 40.5q4 2 4.5 8t0.5 12q-4 66 -6 128q-1 27 0 54q0 35 1 70q1 11 1 21q0 25 -7 47q-10 32 -22 61 q-10 16 -16.5 27.5t-6.5 21.5q4 16 0 30.5t-10 20.5zM374 736.5q-1 -11.5 15 -21.5t29.5 -16.5t32.5 10.5q66 29 137 67q49 41 71.5 93.5t38.5 101.5q-4 31 -5 53.5t-7 38.5q-4 25 -8 44t-12 48q-12 23 -23.5 25t-38.5 -11q-12 -10 -28.5 -21t-28.5 -24q-41 -35 -74 -74.5 t-49 -93.5q-12 -47 -17.5 -95t-27.5 -95q-4 -18 -5 -29.5z" />
<glyph unicode="S" horiz-adv-x="909" d="M161 469q9 10 38 18q41 10 74.5 17.5t68.5 15.5q29 0 29 -20q4 -4 4 -8.5v-6.5q-3 -23 -3 -47q0 -12 1 -24.5t1 -24.5q0 -24 -3 -47q-2 -18 -2 -37t2 -39q6 -25 0 -45q-4 -31 16 -59q14 -27 45 -25h25q29 -2 51 7.5t41 23.5l24.5 24.5t24.5 26.5q31 25 43 55.5t16 67.5 q13 34 15 66q1 18 1 37q0 15 -1 32q0 35 -18 53q-14 14 -48 14q-8 0 -16 -1q-29 0 -54.5 1t-54.5 11q-66 12 -116 45t-86 80q-20 25 -26.5 55.5t-16.5 65.5q-8 35 -8 75q0 31 5 64q6 39 8.5 79t8.5 83q0 55 10 108.5t37 100.5q27 45 31 92q0 23 9 29t32 6q22 -6 55 0 q16 -3 33 -3q23 0 47 6q41 11 84 11q49 0 84 -24.5t39 -73.5q0 -23 12 -56q4 -10 4 -21v-24q-1 -11 -1 -24q0 -38 13 -88q0 -33 1 -63.5t3 -61.5q0 -18 -8 -34.5t-10 -33.5q-2 -29 -8 -56.5t-2 -57.5q0 -10 -2 -21.5t-2 -21.5q-4 -20 -16.5 -26.5t-26.5 1.5q-41 27 -68 54.5 t-37 66.5q-10 16 -5 27.5t5 27.5q4 12 1 26.5t-13 22.5q-16 41 -19.5 87t-13.5 91q-2 29 -5 58.5t-7 58.5q0 4 -2 10.5t-12 6.5t-17 -11q-12 -16 -20.5 -30.5t-10.5 -34.5q-16 -41 -30.5 -86t-30.5 -88q-6 -10 -7 -18.5t-1 -12.5q-4 -59 -13.5 -112.5t-21.5 -108.5 q-5 -20 -5 -39q0 -22 7 -42q12 -36 53 -58q23 -16 41.5 -28.5t44.5 -17.5q18 -8 36 -9t32 3q27 2 53 3q20 0 39 -2q45 -3 84 -27q41 -18 57 -46q12 -22 12 -53q0 -8 -1 -16v-27q3 -33 3 -69v-18q-1 -46 -12 -89q-8 -53 -29.5 -100t-54.5 -96q-6 -4 -14 -13 q-25 -16 -47.5 -31.5t-48.5 -31.5q-29 -16 -56.5 -21.5t-62.5 -1.5q-37 6 -73 19.5t-70 19.5q-10 0 -19.5 7.5t-17.5 17.5q-8 14 -17.5 21t-21.5 14q-12 6 -16.5 12t-10.5 10t-9 14.5t-7 16.5q-25 16 -28 34.5t-1 45.5v30q-4 23 -3 47.5t3 47.5q6 23 2 39t-14 39q-4 4 -4 9 t-2 11q-10 33 -1 43z" />
<glyph unicode="T" horiz-adv-x="993" d="M-39 1284q-6 27 7.5 41t37.5 6q29 -8 56.5 -1t56.5 20q51 12 99 23t97 18q133 23 265 35q69 6 139 6q64 0 129 -5q16 -4 38.5 -2t45.5 2q20 0 34.5 -5t34.5 -15q16 -4 18.5 -14.5t2.5 -26.5q-10 -25 -43 -25q-74 -6 -147.5 -17t-149.5 -19q-6 0 -16.5 -3.5t-22.5 -3.5 q-14 -8 -14 -30q2 -51 7 -99.5t7 -99.5q8 -29 4 -57.5t-6 -55.5q-12 -12 -12 -32q0 -19 1 -38q0 -61 -6 -122q-2 -27 -1 -54q0 -55 8 -112q8 -45 13 -77t6 -62.5t0 -63.5t-1 -82q0 -35 -2 -67v-6q0 -30 19 -60q4 -23 4 -45v-39q2 -23 2 -46t6 -40q4 -27 -8 -37 q-10 -6 -20.5 -4t-12.5 4q-14 6 -38 1t-36 8q-31 4 -50 -1.5t-48 19.5q-23 14 -28 42t-15 52q0 12 5 17.5t11 11.5q8 12 11.5 24.5t-11.5 22.5q-16 23 -14 51.5t2 50.5q-1 24 -1 47q0 47 3 89q1 18 1 36q0 47 -7 99q-2 25 -2 47q0 16 1 32q3 36 8 75.5t12.5 81.5t11.5 91 q-4 35 -5.5 78t-1.5 82v39q18 33 18 70v9q-1 16 -1 31q0 24 2 46q0 20 -5 27.5t-28 7.5q-35 -10 -68.5 -17.5t-68.5 -17.5q-35 -4 -68.5 -8.5t-70.5 -6.5q-23 -8 -45.5 -9t-44.5 -3q-31 -10 -54.5 0t-34.5 45q0 10 -7 20.5t-9 20.5z" />
<glyph unicode="U" horiz-adv-x="972" d="M-12 1149q-23 10 0 35q23 14 39 36.5t29.5 46t28.5 46t34 39.5q12 14 33.5 23t44 14.5t45 5.5t39.5 -6q10 -6 14 -17.5t8 -21.5q4 -23 4 -47.5t-10 -45.5q-4 -35 -5 -62.5t3 -57.5q6 -47 10 -91.5t4 -89.5q4 -27 2 -48t-2 -42q-10 -59 -10 -116.5t14 -116.5q9 -26 9 -53 q0 -9 -1 -18q-1 -8 -1 -17q0 -28 10 -58q2 -43 4 -84t2 -81q0 -43 13 -81t32 -77q18 -41 39 -2q16 12 24.5 27.5t16.5 33.5q12 39 24.5 83t28.5 87q10 29 6 55.5t-6 49.5q-6 20 -7 36.5t15 34.5q4 4 5 13.5t-1 13.5q-10 23 -9 42t5 42q4 14 3 18t5 13q16 4 13.5 17t-2.5 24 q-10 23 4 47q6 2 9 10t-1 10q-14 20 -7 40t7 34q0 31 3 59.5t-3 59.5q-6 23 -4 46t22 44q10 8 10.5 17t0.5 22q-8 41 -10 77v9q0 32 10 65q2 29 0 51.5t-15 45.5q-10 14 -7 25t11 20q16 14 36 19t36 7q25 6 51.5 7t55.5 6q18 0 24 -5.5t6 -25.5v-230q-4 -84 -4 -166.5 t6 -166.5q0 -35 -2 -72t-12 -70q-7 -29 -7 -56q0 -14 2 -28q5 -41 11 -78q4 -29 5 -57.5t-5 -50.5q-4 -29 -1 -54.5t7 -47.5q2 -63 28 -119t48 -115q4 -16 14.5 -22.5t28.5 -12.5q25 -2 49.5 -7t50.5 -17q4 0 14.5 -3t10.5 -12q2 -12 -6 -18t-17 -8q-4 -2 -12 -7.5t-14 -7.5 q-20 -23 -42 -32t-44.5 -9t-46 4.5t-47.5 8.5q-41 10 -73 38.5t-48 69.5q-10 23 -19.5 39.5t-13.5 32.5q-20 0 -20 -6q-23 -29 -49.5 -52.5t-49.5 -52.5q-16 -20 -41.5 -24t-48.5 -4q-16 -2 -31 -2q-24 0 -48 4q-40 6 -74.5 23.5t-62.5 46t-40 71.5q-8 41 -14 78t-6 78v456 v269q0 35 -5.5 71.5t-5.5 75.5q-4 2 -5 3t-5 1q-16 -14 -24.5 -21t-24.5 -30q-29 -35 -49.5 -40t-48.5 36z" />
<glyph unicode="V" horiz-adv-x="841" d="M90 1519q4 13 37 23q25 14 48 14q7 0 15 -2l60 -12q10 -2 19.5 -8t9.5 -23q-6 -30 -6 -58q0 -26 5 -50q9 -43 9 -90v-17q-3 -32 -3 -65q0 -27 2 -55q5 -62 5 -117q0 -18 7 -30.5t11 -24.5q2 -31 4 -56.5t2 -48.5q-1 -9 -1 -18q0 -33 12 -63q14 -38 20 -79q4 -35 8 -70.5 t8 -72.5q11 -108 46 -221q10 53 27.5 95t33.5 89q6 33 10 69q1 10 1 21q0 27 -7 56q-4 37 -9 77.5t-5 81.5q0 27 8 53.5t18 55.5q4 10 7.5 17t-7.5 18q-6 10 -9 21t1 15q10 20 8 30.5t-8 25.5q-6 25 -2 62.5t10 72.5q5 35 15 69q4 12 3 25q0 22 -11 45q-4 6 -4.5 17.5 t10.5 21.5q0 4 2 7t2 10q0 33 4 38t31 9q29 10 55 15t55 15q27 4 41 -9t8 -40q-10 -45 -19 -91t-18 -91q-5 -39 -5 -68q0 -32 16 -61q2 -16 0 -38t-11 -40q-8 -49 -10 -100t-2 -99q0 -39 8 -73q12 -42 12 -86q-1 -7 -1 -15q-2 -52 -31 -100q-23 -45 -23 -100q0 -30 -1 -60 v-20q0 -21 1 -45q0 -16 -2 -36t-12 -42q-14 -29 -19.5 -59.5t-5.5 -59.5q-6 -35 -17 -67.5t-24 -73.5q-2 -8 -6 -18.5t-12 -20.5q-29 -23 -52.5 -25t-49.5 11q-41 18 -71 44q-26 22 -26 64v12q0 18 -3 31.5t-7 30.5q-35 80 -50 167t-24 175q-20 104 -29 210.5t-30 213.5 q-14 98 -24.5 193.5t-20.5 193.5q-4 25 -3 50.5t-5 53.5q-4 12 -8.5 27.5t-14.5 28.5q-10 31 -6 44z" />
<glyph unicode="W" horiz-adv-x="1165" d="M104 1198q27 8 48.5 15.5t56.5 -3.5q8 -2 16 -9t11 -17q2 -23 7 -43.5t7 -40.5q2 -54 7 -108q2 -18 2 -36q0 -37 -7 -77q0 -33 2 -64t12 -61v-37v-25.5t4 -36.5q8 -6 9 -37q0 -16 2 -31.5t4 -37.5q4 -18 8 -37.5t4 -36.5q0 -57 22 -113q8 -41 19.5 -78.5t32.5 -72.5 q4 -6 4 -11t2 -16q10 -2 13 -6t13 4q8 4 14.5 12.5t12.5 16.5q4 4 6 10t10 12q28 28 28 66q0 16 -5 33q-16 49 -27.5 98t-25.5 98q-16 48 -20 100q-1 13 0 28q0 39 7 81q8 27 11.5 55.5t-6.5 57.5q-6 25 22 41q12 4 22.5 12t20.5 17q10 4 13 9t12 15q32 18 59 18q9 0 15 -2 q32 -6 61 -22q20 -10 25.5 -29.5t7.5 -40.5v-24q0 -6 3 -13.5t11 -11.5q12 -12 16 -29.5t9 -29.5q6 -25 8 -38t1 -25.5t-5 -26t-13 -37.5q-12 -37 -14 -73t-2 -73v-63.5t-16 -61.5q-14 -23 -18.5 -45t-16.5 -43q-2 -14 -1 -26t1 -23q10 -18 18 -38.5t19 -36.5q4 -2 9 -7.5 t9 -5.5q43 -21 85 -21q30 0 60 11q14 8 21.5 17.5t7.5 25.5q6 53 14.5 105.5t12.5 105.5q0 27 -4 48.5t-15 45.5q-6 10 -7 26.5t7 28.5q2 10 1 19.5t-5 13.5q-25 41 -36 85q-6 23 -6 47q0 22 5 46q0 10 -6 16.5t-6 14.5q-2 20 0 31q18 51 18 104.5t7 106.5q0 4 -3.5 13 t3.5 13q16 16 12 34t-10 28q-10 41 -18.5 81t-12.5 81q-10 29 6 44t33 29q29 18 55.5 15.5t54.5 -13.5q10 -2 15.5 -12t11.5 -20q6 -29 11 -55.5t-3 -55.5q-5 -40 -5 -78v-12v-17q0 -35 -3 -71q0 -29 -1 -56.5t-7 -62.5q0 -23 4 -47.5t4 -46.5q4 -25 7 -48.5t14 -45.5 q12 -20 18 -45t16 -48q6 -12 7.5 -26t1.5 -29q0 -35 2 -66.5t-7 -60.5v-23.5t5 -31.5q8 -18 9 -37.5t1 -42.5q0 -10 2 -20.5t4 -24.5q0 -12 3 -22.5t-9 -20.5q-27 -33 -52.5 -65.5t-58.5 -53.5q-33 -27 -61.5 -34t-59.5 -15h-34q-31 -8 -63 -5t-60 5q-31 8 -54.5 20.5 t-48.5 26.5q-25 12 -33 11t-30 -23q-31 -29 -68 -40t-78 -22q-10 0 -16 5.5t-14 9.5q-12 6 -27.5 11t-34.5 15q-23 16 -33 31.5t-14 44.5q-2 47 -9 89t-26 83q-10 27 0 55q0 4 4.5 11.5t4.5 13.5q2 16 -3.5 25.5t-27.5 13.5q-4 4 -6 10t2 17q11 24 11 48q0 22 -9 44v10v8 q10 23 6 41.5t-8 38.5q-10 18 -12.5 36.5t-2.5 35.5q0 35 -1 74.5t-3 78.5q-4 39 -4 77v73q2 14 2 27q0 19 -4 37q-6 30 -8 65q0 12 -10.5 26.5t-10.5 24.5zM482 787.5q-2 -15.5 3 -27.5q2 -16 2 -31.5v-32.5v-112q6 -10 8.5 -19.5t10.5 -15.5q20 27 32 75q7 28 6 50 q0 15 -3 28q-2 18 -3 43t3 50q16 16 0 41q-2 18 -16.5 23t-28.5 -9q-6 -10 -8.5 -15.5t-2.5 -17.5q-1 -14 -3 -29.5z" />
<glyph unicode="X" horiz-adv-x="972" d="M174 1436q0 16 2 22t12 6q18 0 35 5.5t29 5.5h13t18 -2q23 0 22 -33q2 -29 9.5 -63t23.5 -62q4 -4 5 -11.5t1 -11.5q6 -23 11 -40t14 -35q8 -10 11 -14.5t-1 -14.5q-8 -6 -7 -9t17 -8q16 -18 17 -38q10 -18 17 -39t7 -39q4 -8 5 -11.5t11 -3.5q4 0 5 4q10 12 10 19 q4 16 28 16q8 -4 12.5 0t4.5 15q4 4 6 12t6 18q6 25 11.5 53.5t15.5 51.5q10 18 12 31.5t2 33.5q0 16 5 32.5t20 27.5q10 4 11 11t1 15q-4 33 8 50q33 45 53 102q10 6 7.5 14t9.5 19q6 2 14 1t21 -1q10 -4 22 -5t23 -12q12 -8 8 -20q-16 -39 -24.5 -79t-24.5 -75 q-16 -23 -23.5 -48.5t-3.5 -57.5v-19.5t-4 -19.5q-2 -20 -4 -37.5t-2 -40.5v-11t-2 -10q-23 -35 -31 -69.5t-29 -71.5q-8 -18 -8 -32.5t4 -36.5q6 -37 14.5 -78t18.5 -78q0 -14 10 -25q12 -18 17.5 -42.5t9.5 -51.5q2 -33 13.5 -64.5t19.5 -60.5q10 -51 31.5 -94t48.5 -84 q16 -18 10 -36.5t-6 -37.5q0 -8 -6 -8q-29 -6 -53.5 -7t-51.5 15q-8 14 -31 23q-35 12 -49 34.5t-22 59.5q-12 78 -47 154q-4 16 -9.5 32.5l-9.5 28.5q-4 2 -6 4t-6 -2q-6 0 -6 -2q-6 -4 -7 -8t-4 -8q-10 -39 -24 -78t-19 -78q-35 -96 -53 -195q-6 -23 -19.5 -38t-29.5 -31 q-10 -12 -26.5 -15.5t-32.5 13.5q-14 6 -29.5 15t-32.5 20q-16 10 -2 24q2 10 8.5 15.5t6.5 11.5q0 35 10 63.5t20 57.5q12 29 21.5 57.5t17.5 56.5v9q18 31 20.5 63.5t12.5 54.5q4 23 6 40.5t14 33.5q2 0 4 2q4 4 5 8q0 41 10 75t20 69q5 22 5 42q0 27 -9 50 q-27 55 -45 107.5t-41 105.5q-10 23 -16 37t-10 37q-27 59 -53.5 113t-53.5 106z" />
<glyph unicode="Y" horiz-adv-x="907" d="M82 1450q10 14 33 14q10 -4 27.5 -6t27.5 -6q29 -16 55.5 -28.5t55.5 -34.5q23 -14 24.5 -19.5t-8.5 -28.5q-4 -23 0 -32q10 -55 19.5 -112.5t19.5 -111.5q2 -18 8 -45.5t19.5 -57.5t34 -55.5t53.5 -41.5q10 16 11 37.5t-1 46t-4 48t2 42.5q0 4 1 8t5 6q29 20 28 49 t-1 58q8 16 9 39.5t5 44.5q2 23 -3 40t-22 37q-4 4 -7 9.5t-9 11.5q-6 14 -6 28.5v26.5q4 16 19.5 15.5t27.5 3.5q14 4 30.5 2t30.5 -4q25 -4 45.5 -8.5t44.5 -4.5q43 0 57.5 -17.5t8.5 -60.5q-12 -119 -37 -235q-4 -23 -9 -42t-7 -46q-16 -84 -20.5 -170t-18.5 -172 q-4 -43 -11 -89q-4 -19 -4 -37q0 -28 7 -56q0 -23 -4.5 -47.5t-8.5 -47.5q-2 -33 -5 -65.5t-5 -67.5q-2 -72 -8 -144q-1 -16 -1 -31q0 -57 17 -111q4 -23 0 -47.5t-24 -47.5h-6q-18 -29 -33 -33t-39 17q-82 66 -105 162q-2 6 -4 14t4 16q12 16 14.5 31t2.5 39v41q0 72 5 148 q7 96 23 188q2 35 3.5 65.5t5.5 65.5q0 16 -8.5 29.5t-30.5 23.5q-80 45 -136.5 107.5t-86.5 150.5q-39 92 -56.5 187.5t-21.5 195.5q0 20 -7.5 35.5t-15.5 32.5q-14 20 -10 47z" />
<glyph unicode="Z" horiz-adv-x="874" d="M70 1374q-4 18 5 27.5t19 1.5q28 -5 56 -5t56 5q56 10 113 10q16 -8 33 0t27 17q17 8 37 8q14 0 30 -4q41 -12 80 -26.5t76 -33.5q29 -10 33 -16t-4 -37q-4 -23 -13.5 -48.5t-13.5 -47.5q0 -35 -10 -54q-23 -57 -32 -108t-19 -111q-10 -29 -18.5 -58.5t-16.5 -57.5 q-8 -53 -20.5 -100.5t-16.5 -100.5q0 -29 -13.5 -56.5t-21.5 -54.5q-16 -35 -22 -70.5t-6 -68.5q-6 -41 -12.5 -76t-16.5 -69q-4 -14 -4 -21.5v-11.5q-4 -16 3 -23.5t19 0.5q18 8 37 11.5t36 6.5t32.5 11.5t27.5 26.5q20 -14 45 -10.5t48 3.5q10 0 16 -2t18 -12 q20 -10 40 -13t42 -9q16 -2 39 -12.5t41 -14.5q23 0 29 -23q0 -10 -6 -13t-8 -9q-20 -10 -38 -18.5t-36 -8.5q-20 0 -43 -8q-70 -25 -141.5 -41t-139.5 -31q-39 -9 -74 -9h-7q-38 1 -79 14q-47 8 -78.5 33.5t-47.5 76.5q-17 43 -17 83q1 3 1 7q2 43 30 88q20 29 26.5 57.5 t10.5 59.5q33 117 60.5 228.5t57.5 228.5q25 78 41.5 156.5t32.5 158.5q4 2 4 14q0 18 1 30.5t-4 19t-17 7.5t-37 -3t-48.5 -5t-47.5 1h-25q-27 -16 -49.5 -4t-44.5 34q-14 16 -27.5 37t-27.5 43z" />
<glyph unicode="[" d="M356 1312v109q4 63 6.5 128t8.5 126q8 98 102 78q59 -10 114.5 -28.5t114.5 -34.5q18 -8 34 -19.5t16 -34.5q-4 -23 -17.5 -36t-32.5 -17q-53 -20 -116 -6q-51 14 -43 -33q0 -18 5 -36.5t9 -41.5q4 -12 6 -61t2 -121v-159t-1 -178t-3 -178t-4 -158.5t-5 -121t-5 -61.5 q-8 -37 1 -70.5t13 -70.5q0 -20 2 -74.5t6 -117t8.5 -117t8.5 -74.5q4 -29 14 -36t39 -3q41 4 83 7t83 -13q14 0 35 -9q14 -8 25.5 -17t6.5 -32q-6 -23 -22.5 -23.5t-34.5 3.5q-55 -6 -108.5 -12.5t-106.5 -40.5q-43 -25 -67.5 -22t-63.5 36q-18 16 -34.5 35.5t-39.5 38.5 q-12 14 -18 39q-2 33 -5 109.5t-4 183t-3.5 233.5t-3.5 257t-2 257t-2 233.5t-1 183.5z" />
<glyph unicode="\" d="M162 1334.5q4 23.5 14 43.5q19 54 70 54q37 -8 69.5 -14.5t67.5 -10.5q23 -4 34 -17.5t17 -29.5q43 -119 97.5 -229.5t95.5 -231.5q29 -76 53.5 -152.5t56.5 -152.5q39 -84 71 -166t60 -164q18 -63 16.5 -115.5t-34.5 -105.5q-10 -25 -25.5 -39t-40.5 -14q-29 4 -39 20.5 t-18 38.5q-4 10 -7 20.5t-7 20.5q-23 61 -42.5 123.5t-38 125t-40 124t-47.5 121.5q-41 92 -73 184t-89 174q-53 84 -103.5 171t-103.5 169q-18 29 -14 52.5z" />
<glyph unicode="]" d="M210 1664q-3 9 5 15q0 4 5 7.5t9 3.5q29 8 59.5 5t61.5 -9.5t61.5 -9.5t61.5 3q29 8 58.5 3t58.5 -11q53 -10 71.5 -32.5t26.5 -69.5q4 -23 4 -42v-42q0 -53 -7 -108.5t-3 -110.5q2 -25 2 -91.5t-1 -161.5t-3 -209t-4 -232.5t-4 -232.5t-4 -209t-2 -161.5t2 -91.5 q4 -29 2 -60.5t-6 -60.5q-4 -37 -26 -53t-58 -20q-10 0 -23.5 3t-24.5 7q-45 4 -85.5 8t-86.5 -4q-23 -4 -46 2t-46 14q-41 10 -49 46t25 65q27 27 56.5 43t70.5 16q10 0 22.5 2t22.5 2q47 0 47 39q0 35 4 142.5t9 253t10.5 309.5t9.5 309t6 252.5t0 142.5q0 35 8 75t8 81 q-2 20 -4 33.5t-8 20.5t-18.5 9t-32.5 5q-72 0 -131.5 12t-102.5 76q-8 8 -11 17z" />
<glyph unicode="^" d="M141 1317q-4 23 21 39q72 43 131 103.5t121 119.5q45 37 75.5 53.5t71.5 16.5q23 -4 45.5 -10.5t36.5 -28.5q41 -59 88 -110.5t107 -94.5q27 -18 34 -50t-10 -59q-14 -35 -53 -8q-45 29 -80 69t-76 77q-4 8 -10 14l-10 10q-82 96 -156 0q-18 -27 -38.5 -51.5t-39.5 -50.5 q-29 -41 -65.5 -77t-65.5 -79q-23 -29 -53.5 -26.5t-48.5 36.5q-16 25 -20.5 51.5t-4.5 55.5z" />
<glyph unicode="_" d="M82 2q-49 49 37 55q68 4 136.5 6.5t133.5 6.5q92 2 181 3t178 17q14 4 29.5 1t31.5 -3q16 -2 35.5 -3t44.5 -7q51 -14 45 -53q4 -23 -12.5 -30t-40.5 -9q-119 -20 -236 -19q-86 4 -173 2t-175 0q-20 2 -37.5 1t-32.5 -5q-53 -10 -85.5 -1t-59.5 38z" />
<glyph unicode="`" d="M315 1604q23 18 47.5 15t47.5 5q61 16 110 -8.5t92 -65.5q12 -8 20.5 -14t24.5 -10q23 -8 34 -23.5t20 -29.5q23 -37 10.5 -67t-53.5 -46q-35 -10 -64 -4t-53 24q-41 33 -83 65t-83 66q-23 18 -37.5 44t-32.5 49z" />
<glyph unicode="a" horiz-adv-x="774" d="M83 324q-1 14 -1 28q0 28 4 56q6 25 13 46t20 44q2 12 -4 18q-16 6 -10 11t14 10q2 2 14 2q20 14 10 34q-8 18 -7 24.5t16 18.5q10 8 17 18.5t21 16.5q10 2 20.5 12.5t16.5 20.5q8 10 15.5 18.5t15.5 16.5q12 4 12 16q0 14 11.5 21.5t17.5 17.5q10 10 19.5 7t19.5 -7 q29 -10 51 -22q6 -2 15.5 -4.5t15.5 2.5q33 6 49 -19q30 -27 63 -27q20 0 41 9q15 4 29 4q20 0 39 -8q18 -6 16 -27q0 -8 -2 -16.5t-4 -14.5q-14 -35 -21 -67q-4 -17 -4 -34q0 -15 3 -32q3 -26 3 -51t-3 -49q-3 -25 -3 -50q0 -30 4 -58q7 -52 23 -103q4 -16 5 -29.5t4 -32.5 q10 -39 47 -39q20 0 33.5 -12t19.5 -27.5t3 -31t-15 -21.5q-16 -8 -36 -8q-15 0 -32 4q-53 10 -84 43t-53 74l-7.5 22.5t-13.5 20.5q-10 -10 -16 -20.5t-16 -22.5q-27 -37 -61 -63.5t-81 -36.5q-25 -4 -46 -2t-46 12q-27 10 -52.5 28.5t-47.5 40.5q-61 53 -66 134 q-6 43 -9 84zM227 225q4 -18 6.5 -33.5t8.5 -29.5q6 -23 20 -31t35 -10q16 -4 27.5 5t21.5 24q8 18 16.5 36.5t16.5 34.5q8 23 13 43.5t1 42.5q-6 25 8 55q10 27 16.5 54.5t2.5 56.5v9q0 37 14 79q6 10 -2 31.5t-18 25.5q-6 4 -10.5 2t-10.5 -4q-2 -2 -8 -10 q-8 -16 -19.5 -32.5t-33.5 -24.5q-4 0 -10 -6q-6 -25 -20.5 -43.5t-31.5 -34.5q-8 -14 -12 -29q-4 -16 -7 -32.5t-7 -32.5q-10 -35 -11.5 -73t-5.5 -73z" />
<glyph unicode="b" horiz-adv-x="794" d="M53 72q-12 16 -11.5 31.5t11.5 29.5q10 23 20.5 44.5t20.5 41.5q6 18 11.5 33.5t5.5 32.5q0 43 18 82t41 69q18 41 29.5 75t21.5 73q8 29 4 55.5t-4 54.5q0 59 4 114.5t8 117.5v2q0 63 8.5 121.5t12.5 119.5q0 43 -10 91q-6 23 -23 38q-8 14 -6 25.5t18 15.5 q8 2 16.5 4.5t18.5 2.5q23 0 44.5 6t41.5 24q8 6 23 10q53 13 103 13q4 -1 10 -1q54 -2 102 -36q27 -16 36 -45t9 -57q0 -12 -4 -25.5t-4 -30.5q0 -27 -14.5 -47t-30.5 -43q-14 -14 -23.5 -26.5t-19.5 -32.5q-12 -33 -29.5 -65t-32.5 -64q-18 -41 -31.5 -80t-29.5 -76 q-8 -23 18 -16q15 2 29 2q25 0 48 -6q36 -10 69 -23q23 -8 40 -24.5t35 -36.5q10 -2 13.5 -11.5t-0.5 -19.5q0 -37 14 -66.5t25 -62.5q6 -12 11 -29.5t5 -36.5q0 -31 10 -63.5t15 -63.5q4 -20 3 -35.5t-14 -31.5q-10 -12 -15 -27.5t-11 -30.5q-16 -41 -46 -68.5t-67 -47.5 q-10 -4 -16 -5t-11 -6q-41 -30 -81 -30q-4 1 -8 1q-44 4 -91 25q-55 23 -87 68t-50 100q-6 23 -10 43.5t-10 36.5q-2 8 -3.5 15.5t-7.5 11.5q-35 -23 -44 -57.5t-9 -75.5v-12q0 -37 -10 -73q-12 -42 -17 -83q-4 -10 -11 -21.5t-23 -11.5q-29 0 -35 33q-4 12 -11.5 22 t-11.5 19zM410 600q12 -117 12 -231v-31.5t-4 -32.5q-4 -16 -6 -31.5t2 -29.5v-20.5t4 -18.5q8 -23 18 -39q8 -16 16.5 -19.5t26.5 5.5q35 20 54.5 48.5t23.5 71.5q0 18 3 34t9 32q10 25 10 52q0 17 -4 34q-8 39 -13 78t-5 73q0 20 -8 25q-10 16 -20.5 26.5t-24.5 20.5 q-16 14 -35.5 15.5t-36.5 -3.5q-18 -10 -21 -26.5t-1 -32.5zM418 1106q4 -16 5 -32t5 -30q20 35 42 73t40 73q10 14 14 30q8 34 8 37q0 27 -22 56q-6 8 -24.5 8t-30.5 -4t-14.5 -13.5t-2.5 -19.5v-12q-2 -35 -2 -70t-18 -72v-24z" />
<glyph unicode="c" horiz-adv-x="710" d="M96 483q-1 11 -1 22q1 43 13 85q16 52 37 104q6 20 21.5 33.5t36.5 22.5q16 4 33.5 9t35.5 7q55 12 109 29q35 6 61 14q8 8 25 0q23 -4 44 -9t42 -16q39 -23 39 -71q0 -23 4 -44.5t27 -37.5q14 -12 4 -35q-4 -4 -4 -11t-2 -16q-8 -23 -13.5 -44t-5.5 -44t-29 -35 q-14 -4 -27.5 -7t-29.5 1q-20 4 -31.5 6.5t-20.5 6.5t-17.5 12t-22.5 22q-10 8 -13 25.5t-2 37t4 40t3 33.5q0 10 -15.5 11t-25.5 7q-10 4 -28.5 -8t-27.5 -19q-23 -23 -39 -45t-20 -53q-6 -27 -10 -55.5t-4 -57.5q-4 -12 -1 -25t7 -26q10 -14 12 -25.5t2 -23.5 q0 -41 17.5 -71.5t58.5 -49.5q32 -15 58 -15q57 0 85 73q4 10 19.5 14t25.5 -4t19.5 -18.5t5.5 -24.5q0 -8 3 -12.5t7 -12.5q12 -23 2 -46t-35 -34q-16 -10 -34.5 -18t-30.5 -23q-12 -10 -25.5 -15t-29.5 1q-63 14 -121 41t-103 78q-14 16 -27.5 35.5t-17.5 42.5 q-23 57 -33 117.5t-14 121.5z" />
<glyph unicode="d" horiz-adv-x="751" d="M92 416q4 16 6 26.5t13 20.5q8 8 10 15t6 16q12 33 39 41q14 4 24 18q16 39 52 39q18 2 35.5 8t37.5 2q12 0 19 6q14 14 29.5 14t31.5 -4q23 -8 37 0q6 6 14.5 4t18.5 -1q-4 27 -4 54v50q4 4 2 7t-2 7q-13 33 -13 64q0 8 1 15q2 19 2 38.5t-2 40.5q0 10 1 19.5t-6 19.5 q-6 14 -5 28.5t-3 30.5q-8 49 -10 99.5t-6 99.5q0 16 2 31.5t18 25.5q4 0 8.5 1t4.5 5q0 16 12 27.5t22 24.5q22 24 51 24q16 0 35 -8q25 -12 42.5 -26.5t21.5 -36.5q4 -16 6 -34t6 -36q2 -10 7.5 -28.5t5.5 -28.5q0 -16 -4.5 -25.5t6.5 -28.5q4 -8 4 -17t4 -17q2 -35 3 -74 v-15q0 -31 -3 -59q-2 -6 -2 -14v-19q-4 -20 -7.5 -38.5t3.5 -41.5q0 -6 -2 -16t-2 -14q-4 -22 -4 -43q0 -30 8 -58q6 -12 0 -24q-6 -10 -9.5 -21.5t-7.5 -21.5q-18 -29 -21 -58.5t-7 -60.5q-3 -31 -7 -63q-2 -15 -2 -30q0 -18 2 -36q4 -27 11.5 -53.5t17.5 -55.5 q6 -23 14.5 -43t24.5 -43q4 -4 8 -20q4 -29 18.5 -54.5t28.5 -54.5q10 -23 -1 -36t-36 -11q-59 10 -108 43q-25 12 -25 43q4 23 -6 39.5t-18 34.5q-6 23 -25 4q-6 -10 -15 -19.5t-20 -13.5q-20 -18 -41.5 -31.5t-50.5 -9.5q-31 2 -64.5 3t-64.5 16q-51 20 -81.5 58t-53.5 87 q-17 47 -29 95q-8 31 -8 63q0 18 2 35zM304 296.5q1 -20.5 4 -36.5t1 -31q-1 -6 -1 -12q0 -33 20 -53q8 -10 19 -10t15 10q25 37 47.5 73.5t26.5 84.5q6 33 12.5 64.5t16.5 59.5q4 4 5 10.5t-9 16.5q-16 -14 -31.5 -11t-31 7t-29 5t-25.5 -15q-4 -4 -13 -25.5t-9 -25.5 q-12 -37 -15.5 -64t-2.5 -47.5zM502 1186q3 -36 3 -73v-19v-10q0 -42 7 -83q0 -2 2 -17t6 -33.5t9.5 -34t9.5 -15.5q2 6 6 23.5t9 38t8 37t3 22.5q-6 14 -2 34.5t10 37.5q-4 31 -8 49t-8 31.5t-7 24.5t-7 28q-4 4 -5 9t-8 9q-6 4 -9 -3t-7 -11q-4 -10 -8 -21.5t-4 -23.5z " />
<glyph unicode="e" horiz-adv-x="741" d="M41 403.5q0 4.5 16 16.5q6 10 2 16q-2 12 -5 26.5t-11 24.5q-8 20 8 33q16 16 31.5 34.5t38.5 31.5q16 12 28.5 25.5t24.5 29.5q14 18 31.5 32.5t42.5 18.5q37 6 65 27q16 12 36 17t32 1q33 -4 55.5 1t44.5 5q25 0 46.5 -1t43.5 -1h4q61 -18 101 -61q8 -8 4 -23 q-4 -37 -4 -71.5v-71.5q0 -20 -5 -38.5t-22 -35.5q-6 -8 -13 -19t-11 -24q-12 -27 -47 -32q-18 -6 -40 -7.5t-44 -9.5q-12 -4 -23.5 -8t-24.5 -6q-35 -10 -66.5 -17.5t-66.5 -9.5q-16 -4 -21 -7t-1 -19q2 -18 7 -38t9 -40q4 -12 12.5 -15.5t18.5 -3.5q16 0 33.5 5.5 t31.5 13.5q23 16 46.5 26.5t48.5 22.5q29 12 55.5 8t54.5 -12q12 -4 20.5 -19.5t4.5 -27.5q-4 -20 -14.5 -34.5t-30.5 -25.5q-25 -12 -48.5 -25.5t-47.5 -25.5q-35 -20 -70 -28q-13 -3 -26 -2q-23 0 -48 8q-23 8 -45 11t-43 13q-39 20 -66.5 50t-41.5 71q-10 29 -23.5 55.5 t-26.5 55.5q-16 41 -49 67q-12 8 -12 12.5zM208 492.5q-1 -7.5 1 -11.5q0 -27 7 -32t32 0q0 4 6 4q49 16 99 29.5t100 29.5q18 6 39.5 11.5t37.5 19.5q-16 12 -34.5 12t-32.5 10q-12 6 -24.5 8t-28.5 7q-29 4 -60 3t-63 3q-35 4 -57.5 -19.5t-20.5 -58.5q0 -8 -1 -15.5z" />
<glyph unicode="f" horiz-adv-x="649" d="M3 178q-1 10 13 27q6 6 12.5 8t12.5 6q29 10 46 23.5t34 31.5q6 10 12 18.5t17 16.5q21 21 21 48q0 7 -1 14q-4 49 -11 100t-12 94q0 16 -2 28.5t-2 20.5v79t-2 73q-2 24 -2 46q0 39 7 73q10 53 22 108q12 53 25.5 107.5t13.5 111.5q0 6 4 16.5t14 16.5q16 16 41 32.5 t53 27.5q10 0 17.5 3t17.5 9q2 8 7.5 9t15.5 5q37 6 63 33q10 16 26.5 19t31.5 12q6 2 14 -3.5t8 -17.5q6 -14 21 -20q14 -4 19 -13.5t6 -21.5t0 -26.5t3 -24.5q4 -20 2 -42.5t-2 -45.5q-4 -41 -13 -77q-6 -25 -6 -52q0 -12 1 -25q4 -35 6 -70v-9q0 -31 -12 -58 q-8 -20 -8 -43t-5 -45q-10 -41 -23 -76t-24 -76q-2 -8 -13 -37.5t-24.5 -63.5t-24.5 -62.5t-13 -34.5q-2 -8 18.5 5t46 33.5t49 40t29.5 21.5q4 2 9 2t9 4q8 2 16.5 5t16.5 3q16 -4 27.5 -13t15.5 -22q2 -12 -3 -26.5t-21 -24.5q-6 -8 -21 -16q-49 -16 -90 -48t-76 -73 q-8 -8 -14 -20q-2 -4 -10.5 -9.5t-17.5 -9.5t-14 -7t1 -3q12 -4 27.5 -14.5t27.5 -20.5q16 -18 31.5 -31.5t38.5 -27.5q14 -12 33.5 -26.5t29.5 -49.5q4 -20 12.5 -44t20.5 -46q10 -31 10 -62.5t-14 -60.5t-25.5 -59.5t-19.5 -61.5q-10 -57 -55 -75q-20 -7 -40 -7 q-26 0 -52 12q-29 12 -48.5 33t-33.5 47q-31 59 -58.5 118.5t-40.5 131.5q-8 12 -8 14q-6 16 -10 38t-9 39.5t-14.5 29.5t-23.5 10q-18 -2 -39 -17.5t-33 -19.5q-20 8 -37.5 2t-34.5 9q-12 14 -13 24zM256 737.5q-2 -30.5 6 -61.5q14 -39 14 -84q-10 -23 7 -39 q35 68 58.5 142.5t33.5 146.5q4 39 8 86t9 95t11.5 95t12.5 86q-8 -4 -19.5 -20.5t-24 -36t-20.5 -36.5t-10 -24q-6 -39 -14.5 -75.5t-18.5 -69.5q-4 -4 -5 -12t-1 -17q-10 -29 -20.5 -57.5t-17.5 -58t-9 -60zM296 168q-1 -10 3 -27.5t10 -37t6 -33.5q0 -4 7 -25 q6 -37 20 -72.5t23 -70.5q6 -29 20 -51.5t29 -45.5q4 -6 12 -6t10 6q14 18 24.5 37.5t10.5 48.5q0 4 -2 10.5t-2 10.5q-4 33 -16.5 60.5t-20.5 60.5q-6 14 -19.5 36.5t-31 45t-36.5 40t-34 21.5q-12 2 -13 -8z" />
<glyph unicode="g" horiz-adv-x="735" d="M61 338q2 76 48 145q4 4 7 11.5t9 15.5q4 18 16.5 27.5t28.5 13.5q27 6 43 20.5t31 34.5q22 31 58 31h5q12 -4 23.5 -1t21.5 3q25 -4 47.5 -13.5t42.5 -19.5q16 -10 24.5 -10t22.5 12q16 12 28.5 22.5t27.5 20.5q16 4 37 2q14 -4 28.5 -11t30.5 -15q14 -4 8 -15 q-6 -16 0 -34q6 -10 -8 -21q-16 -18 -19.5 -39.5t-2 -43t3.5 -44.5t0 -43q10 -27 -1.5 -49.5t-11.5 -50.5q-3 -25 -3 -52t3 -55q0 -8 -2 -17t-2 -22v-100q0 -14 15 -23q4 0 9 -1t9 -1q23 -16 6 -28q-4 -6 -6 -10.5t-8 -8.5q-10 -10 -17.5 -21t-7.5 -30q-4 -29 -5 -59.5 t-1 -59.5q0 -37 -4 -74.5t-10 -74.5q-4 -33 -16.5 -62.5t-16.5 -58.5q-4 -20 -18.5 -37.5t-24.5 -34.5q-16 -23 -32.5 -46t-35.5 -40q-32 -31 -62 -31v0q-30 1 -61 21q-12 8 -12 21q-4 31 -19.5 57t-29.5 55q-4 4 -9 7t-13 7q-12 8 -12.5 13.5t1.5 19.5q10 39 22.5 76 t20.5 76q12 55 47 110q14 23 32 43.5t28 42.5q10 14 16 27.5t15 30.5q10 25 28.5 46t48.5 32q23 8 23 34q0 23 -1 41.5t-1 40.5q0 6 -3 13.5t-12 9.5q-14 0 -24 -14q-6 -10 -14.5 -19.5t-12.5 -19.5q-16 -25 -38.5 -43.5t-49.5 -36.5q-20 -10 -37.5 -9t-36.5 5q-23 6 -43 12 t-36 20q-12 10 -23.5 16.5t-21.5 16.5q-41 57 -72 121q-14 29 -18 61q-3 16 -3 33q0 15 2 31zM180 221q12 -51 56 -88q6 -4 10 -6t8 2q20 16 41.5 28.5t36.5 32.5q25 37 52.5 74t35.5 84l2 2q0 2 1 3t1 3q6 10 7 23.5t7 23.5q0 6 -2 11q-10 18 -22.5 35.5t-34.5 27.5 q-14 10 -22.5 11t-18.5 -15q-4 -4 -6 -7t-8 -7q-41 -29 -64.5 -68t-46.5 -84q-6 -16 -14.5 -32.5t-14.5 -38.5q0 -4 -2 -7.5t-2 -7.5zM367 -510q0 -18 16 -22q23 -6 37 22q47 82 59 191q2 14 3 27t1 28q4 23 7.5 43t7.5 43q0 10 -4 12q-8 4 -13 -6q-23 -29 -28 -55 q-8 -23 -17.5 -44.5t-21.5 -41.5q-10 -16 -17.5 -35t-11.5 -41q-2 -25 -6 -49.5t-8 -48.5q0 -17 -4 -23z" />
<glyph unicode="h" horiz-adv-x="792" d="M53 686q-4 25 0 48.5t10 45.5q10 31 13.5 62.5t5.5 66.5q4 39 9 80q4 29 4 59q0 12 -1 23q0 35 -4 70t-8 69q0 4 -1 5.5t-1 5.5q-10 12 -11 26.5t1 32.5q4 23 2 49.5t-4 50.5q-6 16 -2 22.5t24 8.5q6 4 13.5 5t15.5 -5q12 -6 18 -2t15 12q16 16 30.5 34t36.5 28 q27 18 64 22q19 3 34 3q23 0 37 -7q24 -12 39 -57q8 -27 11.5 -53.5t-5.5 -53.5q-4 -35 -16 -71q-4 -25 -12.5 -48.5t-14.5 -48.5q-16 -57 -39.5 -110t-31.5 -113q-4 -6 -5 -12t-8 -12q-12 -27 -8 -58q2 -18 3 -36q0 -30 -7 -60q-4 -10 -2 -19.5t2 -17.5q0 -20 -3 -38.5 t-7 -41.5l24.5 17.5t20.5 13.5q20 20 41.5 34.5t46.5 20.5q47 17 95 27q35 8 70 7q13 0 27 -1q10 -2 18.5 -2t18.5 -4q25 -8 33 -33q4 -20 10.5 -38.5t6.5 -41.5v-36.5t8 -34.5q4 -4 4 -7q0 -37 7 -73q3 -17 4 -35q0 -20 -5 -39v-8q10 -29 6 -57.5t-8 -57.5q4 -23 1 -42 t5 -42q6 -25 4 -50.5t0 -51.5q0 -35 19 -56q23 -23 41 -53q12 -18 2.5 -32.5t-31.5 -14.5q-4 -4 -7 -2t-7 2q-18 0 -40 12.5t-40.5 28.5t-31.5 35.5t-15 36.5q-4 25 -11.5 47t-13.5 47t-7 48.5t1 51.5q2 23 0 45.5t-4 44.5t-2 43q0 27 3 55q4 35 4 69q0 14 -1 28 q-4 29 -1 58.5t-7 58.5q-6 33 -24 33q-13 0 -32 -17q-23 -23 -43 -44t-37 -52q-10 -25 -21 -49.5t-28 -48.5q-18 -29 -27.5 -61t-13.5 -62q0 -10 -1 -19.5t-9 -15.5q-10 -29 -10 -54.5t2 -54.5q-2 -39 -2 -75.5v-71.5q-4 -53 -41 -55q-25 -6 -45 8q-27 23 -53.5 42t-49.5 44 q-10 10 -14 19t2 26q10 16 6 33.5t-8 33.5v13.5t6 13.5q14 14 10 28.5t-12 24.5q-16 29 -20 60.5t-6 64.5q-10 63 -10.5 126t-4.5 126zM199 1133v-10q0 -35 12 -64q10 4 11 12t1 16q10 39 23.5 75t25.5 75q10 37 15.5 75t5.5 74q0 33 -23 19l-8 -8t-8 -11 q-8 -20 -16.5 -37.5t-16.5 -33.5q-4 -10 -8 -20.5t-6 -22.5l-4 -70t-4 -69z" />
<glyph unicode="i" horiz-adv-x="483" d="M25 113q16 8 24 18t23 19q8 4 10 12t6 16q18 51 37.5 102.5t30.5 102.5q4 18 13 38.5t19 41.5q8 21 8 41q0 12 -3 24q-10 47 -16.5 97.5t-16.5 99.5q-6 12 0 17.5t14 7.5q18 8 38.5 18t37.5 23q12 6 21.5 13t19.5 11q14 6 20 3t17 -15q4 -10 8 -19.5t14 -17.5q4 -4 6 -10 t6 -11q10 -66 14 -126q1 -10 1 -21q0 -50 -15 -104q-6 -29 -12 -61t-10 -60q-1 -12 -1 -23q0 -38 15 -71q6 -23 15.5 -43.5t25.5 -40.5q14 -20 28.5 -40t14.5 -49q0 -4 2 -10t9 -8q8 -33 -9 -41q-25 -25 -45 -8q-10 6 -16 13t-17 14q-23 18 -41 43.5t-28 58.5 q-2 12 -9.5 22.5t-13.5 20.5q-25 -25 -26 -45q-4 -16 -11.5 -33.5t-15.5 -30.5q-25 -46 -68 -46q-14 0 -30 5q-27 4 -47.5 22.5t-46.5 29.5zM142.5 1050.5q-1.5 8.5 9.5 20.5q25 25 51 42t59 24q10 4 16.5 6t14.5 10q4 4 10 7t10 3q16 -4 24.5 -8t16.5 -12q4 -6 13 -15 q22 -38 22 -62q-1 -2 -1 -6q-4 -26 -38 -61q-14 -8 -14 -26q-6 -16 -31 -17q-41 12 -78 37q-18 10 -34.5 20.5t-32.5 20.5q-16 8 -17.5 16.5z" />
<glyph unicode="j" horiz-adv-x="657" d="M-57 -629q-2 4 8 21q10 14 8 28.5t-8 28.5t-5 29.5t5 32.5q10 23 13 47t9 47q20 59 41 115.5t39 115.5q2 12 5 25.5t8 29.5q4 25 10 42.5t14 32t17.5 29.5t21.5 38q23 35 35 67.5t41 63.5q8 10 13 19.5t5 23.5q0 59 1 140v32q0 61 -3 108q-4 25 -5 53.5t-19 57.5 q-4 2 -3 5t7 5q4 4 9 7t11 6q29 0 53.5 7t53.5 15q4 4 8 2t8 -2q23 4 27 0t6 -29q4 -10 9 -18t15 -18q4 -8 8.5 -14.5t-6.5 -12.5q-10 -10 -6 -21q8 -14 7 -27.5t-1 -29.5q-2 -20 7.5 -25.5t23.5 5.5q29 18 47.5 35.5t40.5 48.5q12 16 27.5 15t26 -14.5t11.5 -35t-16 -45.5 q-12 -12 -28.5 -34t-31.5 -45.5t-30.5 -46t-23.5 -36.5q-4 -6 -12.5 -16.5t-12.5 -20.5q-16 -14 -20 -36.5t-4 -45.5v-42t-5 -38v-27.5t5 -29.5v-47.5t-5 -44.5q-4 -39 -5 -73t-5 -71q-4 -29 0 -55.5t-8 -54.5q-4 -8 -2 -15.5t2 -17.5v-35.5t-10 -36.5q-6 -12 -9.5 -27.5 t-7.5 -29.5q-6 -39 -14 -70q-12 -29 -15 -43t-14 -47q-8 -16 -26.5 -38.5t-22.5 -41.5q-2 -10 -6 -19t-4 -17q-4 -16 -10 -23.5t-29 -7.5t-43 -2t-41 -6q-35 -6 -56.5 3t-39.5 36q-8 4 -15.5 14t-15.5 18q-16 20 -19 35.5t-24 34.5q-18 10 -20 14zM131 834q-4 16 3 32.5 t16 36.5q2 10 16 10q12 -2 23.5 -1t23.5 -5q34 -12 63 -12q13 0 25 2q33 2 52.5 -21.5t15.5 -52.5q-4 -23 -12.5 -47t-24.5 -45q-12 -10 -22.5 -18t-22.5 -11q-29 -4 -54.5 1.5t-48.5 21.5q-53 41 -53 109zM133 -584q-6 -25 10 -55q12 -23 31 -4q14 8 19.5 19.5t9.5 27.5 q2 23 7 45.5t7 44.5q6 37 16.5 72t20.5 69q16 51 18.5 99.5t6.5 105.5q-4 23 1 55.5t5 61.5q0 4 3 25.5t6 45t4 43t-3 19.5q-6 0 -15.5 -16.5t-16.5 -36t-12 -36.5t-5 -19q-2 -4 -2 -15q-10 -47 -23.5 -95t-30.5 -89q-8 -29 -8 -60.5t-14 -54.5q-8 -14 -10 -27.5t-6 -25.5 q-4 -33 -2 -62.5t-13 -58.5v-16q4 -14 2 -28.5t-6 -33.5z" />
<glyph unicode="k" horiz-adv-x="909" d="M8 121q-10 8 4.5 33.5t26.5 40.5q12 16 17 25t8.5 17.5t6.5 19.5t13 32q14 31 24.5 52t20.5 41.5t21.5 43.5t29.5 57q8 20 16.5 46t24.5 75q4 4 4 17.5t-1 29t-3 28.5t-2 19q-14 78 -18 158t-21 158q-4 29 -8 55.5t-6 48.5q-1 16 -1 33q0 33 5 67q8 50 18 99 q6 18 9.5 23.5t7.5 25.5q4 10 22.5 29.5t30.5 21.5q37 10 63.5 15.5t63.5 9.5q18 2 44 -7.5t42 -17.5q18 -10 29.5 -16t16.5 -12.5t6 -16.5t3 -26q2 -35 7.5 -60.5t17.5 -60.5q4 -23 6 -61t-4 -62q-8 -41 -10 -63.5t-11 -65.5q-6 -41 -16 -80t-18 -78q0 -10 -9 -22 q-23 -31 -37 -65t-28 -69q-6 -16 -9 -23t-5 -13.5t-6.5 -15.5t-12.5 -27q-4 -10 -9 -19.5t-1 -21.5q12 16 25.5 31.5t23.5 31.5q14 25 27.5 37t27 21.5t28.5 18.5t38 26q31 20 63 30q20 6 43 6q13 0 27 -2q16 -2 28.5 -1t28.5 1q23 0 29 -8t6 -33q2 -25 0 -48l-4 -46 q0 -4 -3 -10t-3 -10q-10 -14 -11 -22.5t0 -16.5t1 -17.5t-8 -25.5q-2 -4 -6.5 -14.5t-9.5 -21.5t-10 -20.5t-11 -9.5q-8 -4 -16.5 -9t-20.5 -9q-14 -4 -43 -20.5t-45 -16.5q-6 -8 -2 -13.5t8 -7.5q10 -16 32.5 -26t32.5 -23q25 -33 63 -59.5t64 -56.5q18 -25 42 -44.5 t46 -37.5q12 -14 12.5 -26.5t-3.5 -29.5q-6 -16 -31 -29.5t-43 -17.5q-23 0 -38 9.5t-32 17.5q-41 29 -70.5 60.5t-60.5 68.5q-25 33 -49.5 67.5t-56.5 57.5q-4 6 -10.5 14t-18.5 -2q-10 -14 -4 -35q0 -12 1 -31.5t1 -33.5q-2 -14 -8 -27.5t2 -28.5q4 -18 1 -29.5t5 -33.5 q4 -4 1 -16.5t-11 -20.5q-14 -8 -13.5 -18.5t-9.5 -14.5q-16 -4 -32.5 -2t-36.5 37q0 4 -10.5 26.5t-20.5 47t-19.5 47.5t-9.5 27q-2 31 -3 57.5t-13 46.5q-6 10 -13.5 4t-13.5 -18q-10 -20 -25.5 -27.5t-17.5 -30.5q0 -6 -15.5 -22.5t-19.5 -24.5q-20 -35 -30 -80 q-4 -14 -24.5 -24t-31.5 -10q-12 0 -16 1t-5 3t-5 4t-17 2q-12 2 -17 7t-8 11t-7.5 12.5t-16.5 12.5zM253 1105.5q3 -32.5 7 -58.5q2 -18 5 -50t7 -66t8.5 -66t8.5 -50q10 20 19 56t17.5 75t12.5 76t4 59q4 31 10 70q4 23 4 45q0 15 -2 29q2 4 -6 22.5t-12 18.5 q-2 0 -17.5 -6.5t-19.5 -10.5q-14 -14 -15 -35.5t-14 -48.5q-20 -27 -17 -59.5zM475 440q43 10 75 31t53.5 46.5t36 54t24.5 53.5q-84 -31 -133.5 -84.5t-55.5 -100.5z" />
<glyph unicode="l" horiz-adv-x="608" d="M54.5 90q-3.5 6 6.5 25q10 14 20.5 25.5t27.5 21.5q12 4 16 14t10 23q18 55 39 107t33 112q12 35 12 68q0 36 -14 71q-23 59 -37 121.5t-16 126.5q-3 27 -3 55q0 14 1 27q2 41 4 80q4 31 4 60.5v59.5q0 41 9 82t26 76q59 113 184 139q10 4 21.5 6.5t25.5 6.5q7 1 14 1 q45 0 60 -46q4 -20 9 -42t5 -44q4 -23 6 -43.5t19 -38.5q12 -19 12 -37q0 -6 -2 -14.5t-2 -12.5q-3 -30 -9 -60q-4 -17 -3 -36q0 -14 2 -29q2 -20 -3.5 -36.5t-9.5 -36.5q-8 -94 -43 -191q-14 -45 -14 -98q0 -12 -4 -25.5t-4 -29.5q2 -11 2 -22q1 -28 -11 -53 q-16 -34 -36 -67q-14 -28 -14 -55q0 -32 20 -62q16 -29 30.5 -55t34.5 -55q14 -16 25.5 -34.5t26.5 -35.5q16 -18 28 -39.5t31 -42.5q4 -10 6 -18t-6 -23q-10 -10 -20.5 -8t-22.5 6l-6 2q-33 31 -70 57.5t-57 65.5q-16 23 -33.5 41.5t-34.5 34.5q-18 27 -26 -2 q-8 -14 -15.5 -20.5t-15.5 -16.5q-4 -10 -18.5 -30.5t-18.5 -26.5q-10 -14 -36.5 -29.5t-43.5 -15.5q-18 -6 -29.5 -7t-20.5 1t-20.5 6t-29.5 8q-18 2 -21.5 8zM248 946q6 -57 10 -112.5t14 -108.5q14 18 17.5 39.5t9.5 44.5q29 78 37 156.5t10 160.5q4 16 4 26.5v27.5 q4 10 -2 14t-16 0q-57 -33 -68 -86q-12 -41 -15 -81q-2 -24 -2 -48q0 -17 1 -33z" />
<glyph unicode="m" horiz-adv-x="1165" d="M87 350q5 34 11 66q4 16 10.5 30.5t10.5 30.5q12 36 12 70q0 13 -2 26q-6 45 -11 91.5t-24 91.5q-4 12 6 18q27 4 50.5 0t46.5 -8q12 0 12 -14q0 -6 -2 -11.5t2 -11.5q0 -16 12 -4q4 4 6 5t6 5q33 39 78 55q36 12 77 12q11 0 22 -1q41 0 78.5 -8.5t72.5 -30.5q14 -6 31 0 q23 20 47 35q29 14 55.5 19t57.5 -5q16 -4 30.5 -3t28.5 -3q27 0 55 -12q27 -23 56 -37q14 -10 22 -21.5t6 -29.5q0 -14 6 -23q14 -20 12.5 -40.5t-12.5 -41.5q-4 -12 -2 -22.5t2 -24.5q0 -25 3.5 -52.5t-3.5 -58.5q0 -2 -2 -3t2 -3q10 -29 8.5 -56.5t4.5 -55.5 q0 -8 1 -14.5t-1 -14.5q0 -10 1 -22.5t7 -28.5q6 -6 7 -13.5t1 -17.5q0 -25 10 -39q25 -32 54 -32q14 0 30 8q16 10 30.5 8t25.5 -13q14 -4 24 -13t10 -26q0 -2 9 -10q6 -23 4 -34t-25 -21q-23 -12 -47.5 -22.5t-54.5 -6.5h-2q-16 -14 -34 -8t-34 14q-18 6 -31.5 19.5 t-27.5 30.5q-35 39 -51.5 83t-26.5 91q-12 61 -23.5 121.5t-15.5 119.5q-2 29 -2 54.5v54.5v82v14t-2 14q-8 20 -19 11q-23 -10 -41 -25.5t-28 -44.5q-4 -12 -9.5 -24.5t-15.5 -20.5q-14 -18 -20 -47q-4 -31 -10.5 -61.5t-6.5 -61.5q0 -10 -2 -21.5t-4 -21.5q-4 -39 -7 -76 t-7 -73q-4 -10 0 -21.5t8 -19.5q10 -31 -4 -54q-6 -12 -12 -14t-17 2q-29 16 -48 34.5t-42 35.5q-20 14 -29.5 34.5t-25.5 38.5q-2 10 6 23q8 8 9 18.5t-3 20.5q-2 39 -5 71.5t-9 67.5q-8 39 -14.5 79t-14.5 79q0 6 -2 8q-4 10 -4 16.5t-10 10.5q-10 0 -10 -8.5t-7 -14.5 q-10 -16 -18 -32.5t-12 -39.5q0 -4 -2 -4t-2 -4q-39 -41 -53.5 -91t-18.5 -99q-4 -41 -12.5 -81t-18.5 -79q0 -4 -2 -6t-2 -4q10 -23 4 -44.5t4 -39.5q0 -10 2 -15.5t2 -11.5q0 -25 -16 -33q-10 -6 -16.5 0.5t-14.5 8.5q-10 8 -19 15t-16 17q-16 14 -30.5 28.5t-34.5 21.5 q-18 10 -23.5 21t-5.5 32q0 35 -6 78q-5 22 -5 43q0 13 2 26z" />
<glyph unicode="n" horiz-adv-x="768" d="M58 512q0 3 -1 6q0 38 6 82q4 16 10.5 31.5t10.5 34.5q10 23 4 43q-4 20 2 36.5t16 34.5q4 4 8.5 7.5t8.5 7.5q20 16 27.5 16t33.5 -12q18 -10 37 -16.5t37 -18.5h2q10 -4 20.5 -17.5t19 -29t12 -30.5t1.5 -28q0 -4 -1 -11t-3 -9q-23 -18 -25.5 -46t-15.5 -52 q-4 -4 -2 -7.5t2 -9.5t4 -8t11 4q8 6 14 12.5t14 12.5q84 90 199 108q11 1 21 1q23 0 43 -6q28 -9 55 -27q29 -23 53 -56q2 -4 6 -9t4 -11q-6 -45 -9 -92t-15 -95q-14 -49 -18 -102q-2 -19 -2 -38q0 -34 5 -68q8 -23 11.5 -45.5t19.5 -43.5q6 -6 5 -10t-5 -8q-8 -16 -27 -8 q-14 10 -24 20.5t-21 20.5q-39 74 -49 164q-6 43 -7 85v17q0 33 3 66v102v25q-4 4 -7 8t-11 -2q-25 -10 -46.5 -23.5t-37.5 -36.5q-10 -23 -25.5 -41t-36.5 -37q-14 -10 -24.5 -28.5t-18.5 -40.5q-14 -39 -24.5 -81t-22.5 -83q-6 -6 -5 -25q8 -23 2.5 -42t-15.5 -40 q-8 -29 -33 -16q-10 4 -17.5 8t-15.5 11q-4 4 -9 13t-11 11q-27 10 -43.5 29.5t-28.5 44.5q-4 10 -6 22.5t-6 24.5q-12 37 -18.5 77t-14.5 77q-4 16 -6 32.5t-6 32.5q-14 41 -14 82z" />
<glyph unicode="o" horiz-adv-x="684" d="M74 362q-1 14 -1 27q0 27 3 53q4 29 10 43.5t20 30.5q12 16 19.5 34.5t30.5 29.5q10 6 18 7t15.5 2t12.5 6t7 17q4 8 4 16.5t4 12.5q2 23 5 39t20 37l9 9t13 9q14 8 30.5 8t31.5 5q35 6 73 22q10 4 21.5 2t21.5 -6q47 -2 68.5 -16.5t32.5 -65.5q6 -18 17 -30.5t20 -26.5 q4 -4 15 -1t23.5 10t22.5 13t14 8q12 4 26.5 16.5t25.5 10.5q14 0 21 -14.5t1 -28.5q-23 -37 -48.5 -75t-64.5 -64q-25 -20 -29.5 -47t-0.5 -54q5 -18 5 -35q0 -39 -26 -69q-16 -20 -26.5 -43t-20.5 -47q-14 -31 -36.5 -56.5t-45.5 -48.5q-8 -4 -16 -12q-8 -20 -21.5 -29.5 t-36.5 -13.5q-23 -10 -42 -8t-37 10q-86 31 -132.5 89.5t-64.5 144.5q-10 39 -12 79zM193 311q0 -29 1 -50t7 -44q6 -51 61 -82q16 -12 28.5 -11t28.5 19q25 29 45.5 61t38.5 66q4 4 4.5 10.5t0.5 12.5q0 25 2 49.5t8 52.5q4 16 0 21.5t-23 11.5q-35 4 -65.5 12.5 t-57.5 30.5q-12 12 -26 -8q-18 -39 -38 -75q-16 -28 -17 -59zM319 565q14 -53 82 -53q4 0 7.5 -1t9.5 1q31 0 10 25q-8 20 -10 43q-12 31 -31 55q-4 8 -12 12t-19 -2q-20 -4 -33.5 -31.5t-3.5 -48.5z" />
<glyph unicode="p" horiz-adv-x="882" d="M57 -267q4 40 4 79q2 70 25 133t37 129q4 23 11 43t13 41q18 46 18 93q0 25 -5 50q-2 12 -2 23.5v25.5q0 41 -2 80t-15 76q-4 10 -7 19.5t-9 15.5q-14 20 10 30q20 12 53 7q29 -6 57.5 -13.5t55.5 -23.5q10 -5 18 -19q-33 -14 -18 -49q20 10 35.5 26.5t32.5 32.5 q49 47 118 86q30 17 61 17l5 -1q33 -1 68 -11q12 -4 25 -8.5t26 -8.5q20 -4 35.5 -14t21.5 -33q8 -14 21.5 -22.5t23.5 -24.5q14 -14 22.5 -28.5t8.5 -34.5t3 -37t5 -35q6 -27 6 -51q0 -66 -45 -117q-27 -35 -50.5 -66.5t-51.5 -62.5q-10 -14 -23.5 -16.5t-27.5 -4.5 q-16 -4 -31 -6t-31 -10q-8 -8 -17.5 -7t-19.5 1q-41 6 -77.5 19.5t-65.5 39.5q-23 16 -27 -6q-10 -39 -20 -72q-6 -21 -6 -45q0 -15 2 -30q4 -41 7 -81q1 -17 1 -34q0 -24 -2 -47q0 -33 -6 -60q-6 -29 -7.5 -61.5t-7.5 -65.5q-4 -23 -5 -46t-5 -50q-4 -37 -16.5 -72.5 t-44.5 -58.5q-16 -14 -29 0q-23 29 -51.5 49.5t-50.5 46.5q-12 16 -22.5 32t-20.5 34q-4 4 -6.5 7t1.5 5q14 14 -2 23v6q14 23 9.5 42t-9.5 38q-5 29 -5 56q0 14 1 27zM170 -313.5q2 -24.5 2 -51.5q0 -18 8 -45.5t23 -23.5q16 8 22 43t11 53q2 16 4 29.5t2 27.5q2 45 2 87 v88q0 23 -4.5 41t-10.5 36q-6 -16 -6 -18q-10 -29 -12 -56.5t-14 -56.5q-10 -23 -10.5 -49.5t-8.5 -50.5q-10 -29 -8 -53.5zM418 289q-10 -20 6 -31q14 -10 25.5 -16t22.5 -10.5t24.5 -7.5l31.5 -7q20 -4 33.5 -1t28.5 13q8 4 14 8.5t14 8.5q18 10 25 26q10 25 20.5 44.5 t20.5 39.5q8 15 8 29q0 63 -28 113q-14 23 -28.5 23.5t-35.5 -15.5q-8 -6 -15 -14.5t-14 -16.5q-18 -14 -36.5 -29.5t-38.5 -29.5q-6 -6 -10.5 -11.5t-8.5 -15.5q-20 -55 -59 -100z" />
<glyph unicode="q" horiz-adv-x="768" d="M61 541q-4 23 4.5 37t18.5 30l19.5 19.5l19.5 19.5q8 12 18.5 16.5t22.5 8.5q10 4 19.5 7t19.5 9q49 33 96 45q16 6 30.5 16.5t30.5 20.5q31 16 61 20h8l52 -20q16 -10 30.5 -16t35.5 2q14 6 16 -4q10 -10 20.5 -12.5t20.5 -2.5q12 -6 22.5 -11t18.5 -19 q6 -14 16.5 -18.5t14.5 -16.5q10 -25 8 -51.5t-20 -42.5q-10 -12 -15.5 -27.5t-9.5 -32.5q-4 -27 -7 -56.5t-9 -55.5q0 -4 -1 -10.5t-1 -10.5q1 -27 1 -54q0 -34 -2 -69q-1 -27 -1 -55q0 -33 2 -66q0 -29 1 -56.5t1 -55.5q0 -12 6 -20.5t10 -14.5q20 -27 35.5 -56.5 t32.5 -56.5q8 -16 12 -31.5t8 -31.5q10 -35 27.5 -72t29.5 -74q11 -37 11 -70q0 -17 -3 -33q-8 -48 -42 -95q-12 -16 -25.5 -32.5t-32.5 -27.5q-19 -16 -38 -16q-16 0 -33 12q-10 8 -27 15q-49 14 -80 61q-27 55 -46 110.5t-32 118.5q-6 26 -6 53q0 16 2 33q4 45 6 90.5 t11 90.5q18 98 30 188v20q0 14 -2 17.5t-12 3.5q-12 -2 -23.5 1t-19.5 1q-16 -4 -30.5 -3t-29.5 3q-18 4 -34.5 8t-34.5 4q-10 -4 -16.5 0t-14.5 6q-23 14 -44 27.5t-44 22.5q-41 20 -60.5 55t-29.5 82q-8 31 -13 62.5t-10 60.5zM266 418q-2 -25 8 -39q16 -18 27.5 -31.5 t28.5 -17.5q6 -4 15 -5t20 -6q25 -10 44 0.5t40 38.5q14 23 23 46.5t3 54.5q0 31 -1 56.5t-5 45.5q-2 47 -33 41q-8 -6 -22 8q-10 10 -21.5 17.5t-23.5 7.5q-35 -14 -62.5 -52t-36.5 -102q-2 -16 -1 -31.5t-3 -31.5zM606 -279q-4 -25 0 -52t0 -50q-2 -33 4 -59.5t13 -55.5 q10 -29 41 -16q18 8 24 24.5t6 34.5q6 27 -2 60q-18 86 -43 174q-4 20 -13.5 40t-23.5 36q-2 -8 -2 -19q-8 -29 -3 -56.5t-1 -60.5z" />
<glyph unicode="r" horiz-adv-x="643" d="M23 362q35 29 51 63t32 73q10 23 16.5 47t14.5 51q4 12 4 24q0 21 -14 39q-18 23 -32.5 46.5t-28.5 48.5q-4 16 -12.5 27.5t-12.5 27.5t-1 22.5t19 10.5q10 0 21.5 2t21.5 6q18 4 30.5 7t25.5 13q33 16 45 -16q16 -35 30.5 -67.5t28.5 -65.5q6 -10 7 -17.5t5 -13.5 q10 -35 39 -24q16 10 29.5 11t30.5 -3h8q16 4 33 4q18 0 36 -5q34 -9 74 -16q12 -4 26.5 -9t18.5 -25q1 -6 1 -11q0 -27 -25 -51q-31 -23 -47 -59q-6 -20 -17.5 -38t-11.5 -40q0 -6 -8 -12q-18 -8 -21.5 -24.5t-3.5 -39.5q0 -35 -8 -64.5t-18 -62.5q-6 -33 -8 -67 q-1 -9 -1 -17q0 -24 5 -47q4 -10 8 -18.5t8 -14.5q10 -14 19.5 -14t23.5 10q33 23 55.5 51.5t42.5 61.5q8 12 11.5 17t5.5 9.5t3 11.5t5 23q2 12 22.5 18.5t28.5 -3.5q16 -20 20.5 -28.5t-4.5 -31.5q-4 -16 -11 -34.5t-11 -34.5t-14.5 -26.5t-18.5 -25.5q-14 -39 -51 -69 q-6 -8 -16.5 -15.5t-22.5 -11.5q-29 -15 -57 -15q-10 0 -19 2q-37 7 -72 30q-45 25 -66.5 62.5t-35.5 82.5q-16 57 -16 114v13q2 64 12 123q4 33 10 68.5t17 70.5v16q6 14 -21 21q-14 0 -14 -16q-4 -10 -9.5 -19.5t-9.5 -19.5l-30 -56q-10 -6 -13.5 -15t-7.5 -19 q-2 -20 -13 -39t-18 -41q-8 -16 -16 -20.5t-29 -0.5q-29 6 -46 19t-33 36z" />
<glyph unicode="s" horiz-adv-x="653" d="M113 506q-2 16 -2 33t2 33q4 34 20 63q0 2 2 4t2 4q37 29 73 54.5t71 54.5q4 8 12 16q8 12 19.5 15t21.5 1q16 -2 31.5 -6t31.5 6q4 4 9.5 3t13.5 -3q27 -10 55 -10q29 0 53 -18q2 -6 6.5 -8.5t8.5 -6.5q16 -4 31.5 -15t25.5 -24q10 -14 12 -31.5t-20 -29.5 q-14 -8 -27.5 -19.5t-29.5 -17.5q-10 0 -19.5 -1t-19.5 -5q-35 -10 -65 -27.5t-56 -38.5q-10 -6 -15 -6q-23 -4 -34 -20.5t-23 -30.5q-14 -27 16 -41q16 -10 36 -17t36 -18q20 -10 40 -21t36 -28q10 -10 22.5 -18t26.5 -19q16 -16 28.5 -32.5t24.5 -34.5q8 -16 9.5 -31.5 t1.5 -30.5q4 -10 -2.5 -17t-16.5 -9q-33 -14 -59 -35q-27 -18 -53 -45q-18 -12 -39 -12q-16 0 -19 -13q-4 -6 -12 -14q-16 -4 -29.5 -15.5t-30.5 -7.5q-10 0 -12 -4q-16 -14 -36.5 -13t-34.5 1q-27 4 -45.5 9t-34.5 11q-12 4 -24.5 28t-8.5 34q0 10 6 13t12 1q16 0 25 13 q6 6 12 6q12 0 21 8q0 4 3 6t7 -2q14 -4 31 4q16 8 36.5 11t34.5 18q16 16 32.5 28.5t35.5 24.5q6 10 15 16.5t20 12.5q16 20 0 37q-25 27 -55.5 42t-65.5 21q-23 6 -43.5 11t-40.5 16q-16 6 -29.5 15t-23.5 24q-14 23 -26.5 46t-16.5 52z" />
<glyph unicode="t" horiz-adv-x="866" d="M26 559q-3 2 1 6q0 6 2 15.5t6 11.5q16 4 25.5 4t27.5 2q27 5 60 5q16 0 33 -1q26 -2 48.5 -2t42.5 2q27 2 33 29q4 12 9 25.5t10 25.5q8 16 7 32.5t-3 33.5q-12 60 -20 120q-5 39 -4 78q0 21 1 41q1 10 1 19q0 29 -5 57q-6 37 -6 76q0 33 10 59q6 25 6 49.5t-4 46.5 q-2 23 1 29t22 14q25 10 49 21.5t49 23.5q8 4 14.5 8.5t14.5 8.5t15 7t17 -1q55 -4 97 -35q4 -4 4 -6q14 -29 29.5 -54.5t19.5 -54.5q0 -27 8 -45q10 -23 9 -42t-5 -42q-10 -27 -13 -53t-3 -53q0 -49 -20.5 -101.5t-43.5 -93.5q-10 -20 -15 -40.5t-13 -41.5q-4 -8 -8.5 -16 t-8.5 -18q-12 -8 -6 -17q0 -23 -10 -49q-6 -25 18 -18q24 1 48 1t48 -1q48 -2 95 -2q29 0 64.5 7t58.5 -9q10 -6 22.5 -8.5t22.5 -8.5q20 -10 26.5 -22.5t-10.5 -28.5q-29 -41 -67 -66q-23 -10 -44 -12t-44 0q-23 0 -45.5 1t-45.5 5q-31 5 -73 13q-34 7 -61 6h-13 q-16 0 -10 -13.5t6 -29.5q0 -18 11 -36t11 -36q-4 -29 8.5 -52.5t20.5 -47.5q10 -29 22.5 -70t22.5 -68q4 -16 11.5 -34.5t15.5 -34.5q4 -14 3 -19.5t-18 -11.5q-22 -15 -43 -15q-18 0 -36 11q-23 12 -41.5 26.5t-34.5 30.5q-6 12 -11.5 24.5t-7.5 29.5q-2 6 -4 20t-5 29.5 t-5 30t-4 22.5v13.5t-1 19.5t-4 18t-7 8q-6 2 -10.5 -6t-8.5 -19t-7 -21.5t-5 -12.5q-12 -25 -27.5 -48.5t-29.5 -45.5q-20 -29 -43 -68t-52 -59q-6 0 -6 -6q-23 -23 -43 -25t-47 19l-17.5 14t-15.5 14t-5 13.5t5 9.5q16 29 28.5 52.5t23.5 47.5q16 35 37.5 77t43 86t40 87 t26.5 80q4 16 -20.5 15t-47.5 -5q-31 0 -63.5 6t-65.5 10q-20 4 -35.5 9.5t-31.5 13.5q-4 4 -7 6zM392 914q0 -29 11 -62l5.5 11l3.5 7q10 29 11 56.5t11 54.5q18 41 20.5 86t12.5 90q6 27 -8 57q-10 16 -17.5 17.5t-19.5 -10.5q-30 -25 -30 -60q0 -6 1 -12q3 -35 3 -67v-30 q-2 -44 -3 -73z" />
<glyph unicode="u" horiz-adv-x="681" d="M51 459q2 20 4 37.5t6 33.5q2 18 8.5 38t2.5 36q-4 14 6 14q12 6 24.5 12.5t24.5 10.5q10 4 17.5 6t15.5 0q33 -6 62.5 -16t23.5 -41q-6 -41 -14.5 -83t-16.5 -85q-2 -29 -2 -60.5t4 -60.5q2 -20 2 -39.5t-2 -36.5q0 -8 -1 -13t3 -11q12 -14 7 -19.5t10 -13.5q10 -4 21 1 t22 13q29 16 51 41t43 51q48 65 48 131q0 8 -1 15q-4 27 1 54.5t-3 49.5q-4 16 -8 33.5t-2 38.5q4 6 5 13t11 14q6 6 9 13t13 17l10.5 10.5t12.5 6.5q18 8 27 20q4 4 9 5t11 5q16 4 35.5 9.5t40.5 9.5q39 14 54.5 -3.5t2.5 -53.5q-4 -4 -3 -9.5t-5 -9.5q-25 -29 -30 -58.5 t-11 -58.5v-13t-4 -13q-9 -17 -9 -35q0 -16 7 -33q4 -16 2 -35.5t-8 -36.5q-4 -23 0 -38t0 -35v-23.5t-2 -25.5q-10 -29 -3 -55.5t17 -53.5q12 -20 8 -43t-10 -45q-6 -12 -22.5 -20.5t-30.5 -4.5q-12 4 -21.5 8.5t-15.5 16.5q-25 23 -42 48.5t-34 57.5q-6 12 -6 19 q-4 20 -20 4q-27 -23 -42.5 -41t-44.5 -25q-6 0 -18 -9t-14 -11q-23 -23 -64 -29q-11 -2 -20 -2q-27 0 -43 13q-59 33 -81 94t-24 139q2 18 0 39.5t2 44.5q0 8 2 12q-8 25 -8 64z" />
<glyph unicode="v" horiz-adv-x="671" d="M25 774q6 10 16 6q35 -4 66.5 -13t64.5 -19q23 -10 30 -32t-7 -44q-4 -4 -7.5 -6t-3.5 -7q-2 -37 -7 -73q-2 -14 -2 -29q0 -23 5 -45q4 -8 4 -20q-2 -11 -2 -23q0 -29 12 -57q16 -39 15 -82q0 -4 2 -11.5t12 -11.5q10 29 19.5 54.5t17.5 54.5q14 31 28.5 63.5t33.5 63.5 q12 20 16 41.5t4 44.5q0 8 7 15l11 11q27 27 33 66q4 27 26.5 51.5t51.5 40.5t61.5 20.5t57.5 -10.5q4 -4 12 -4t12 -2q35 -8 43.5 -25.5t12.5 -50.5q0 -10 -11 -20q-16 -20 -27 -41t-22 -45q-12 -31 -41 -45q-29 -10 -46 -29.5t-27 -50.5q-2 -18 -17 -39q-29 -53 -39 -109 q-7 -40 -7 -86q0 -18 1 -36q6 -25 -16 -47q-18 -20 -26.5 -51t-24.5 -54q-6 -12 -5.5 -25.5t5.5 -29.5q0 -23 -6.5 -29t-22.5 -2q-39 4 -66.5 23.5t-52.5 44.5q-23 23 -42 47t-21 61q-4 23 -13.5 43.5t-13.5 40.5q-16 47 -21.5 94t-13.5 97q-16 49 -21 105t-10 114 q-4 27 -10 47t-24 39q-8 4 -4 16z" />
<glyph unicode="w" horiz-adv-x="974" d="M80 406q2 78 12 153q4 29 12.5 56.5t18.5 54.5q4 10 6 19t2 20q4 10 1 15l-9 15q-12 10 4 21q16 8 37.5 8t42 -6t38 -17.5t25.5 -23.5q8 -18 9 -41q-2 -35 -8.5 -67.5t-22.5 -67.5q-2 -6 -4 -12.5t-2 -12.5q-4 -27 -5 -52.5t-12 -49.5v-15q12 -23 11.5 -51t5.5 -53 q4 -18 0 -34.5t-4 -35.5q-4 -12 1 -23t13 -22q8 -12 20 0t23 37q23 37 38 76t32 76q12 23 18 46t10 48q4 12 3 25.5t-3 27.5q-8 20 19 33q37 20 58.5 23.5t61.5 -11.5q29 -12 27 -23.5t-6 -21.5q-10 -16 -11 -33.5t3 -35t11 -35t11 -35.5q4 -29 5 -53.5t14 -53.5 q4 -14 12 -28.5t18 -28.5q4 -10 10.5 -9t10.5 9q8 14 13 29.5t1 36.5q-6 23 -3 45t8.5 44.5t8.5 46t1 48.5q-4 20 -15.5 41.5t-22 45.5t-15.5 46.5t3 44.5q16 51 38 77t63 52q23 16 43 23.5t45 -2.5q4 -4 11 -4h11q12 -4 19.5 -16.5t7.5 -24.5q0 -16 1 -29.5t13 -24.5 q12 -10 4 -22q-16 -25 -14 -52.5t4 -56.5q2 -41 15.5 -77.5t29.5 -71.5q12 -23 2 -37q-10 -27 -20 -50.5t-25 -45.5q-10 -20 -16 -43t-14 -45q-8 -29 -20.5 -54.5t-41.5 -38.5q-4 -4 -10 -6t-6 -6q-10 -16 -21.5 -20t-27.5 -9q-14 -6 -26.5 -3t-25.5 8q-61 18 -102 57 t-70 94q0 6 -12 12q-4 -12 -10 -19t-12 -15q-29 -41 -50 -86q-27 -47 -77 -61q-24 -7 -47 -7q-25 0 -50 8q-68 27 -104.5 76t-38.5 125q-3 52 -3 104q0 26 1 52z" />
<glyph unicode="x" horiz-adv-x="704" d="M76 80q4 16 9 30.5t28 16.5q6 4 11 11t11 14q23 47 53.5 91t69.5 81q16 23 15 32t-19 27q-23 25 -41 51.5t-33 54.5q-4 10 -10 16.5t-10 14.5q-10 10 -9 18.5t19 18.5q23 6 10 29q-6 10 -12 19t-10 18q-16 25 12 30q20 5 40 5q32 0 64 -13q12 -4 19.5 -9.5t3.5 -21.5 q0 -2 -2 -4t2 -2q10 -35 31.5 -61.5t50.5 -48.5q4 -6 10 -1t10 9q16 16 30.5 34.5t31.5 37.5q10 10 18 24t17 25q10 10 15 20t3 23q-2 16 3 20t20 4q10 0 20 -1t18 -7q14 -12 28.5 -24.5t29.5 -22.5q10 -10 8 -18.5t-8 -18.5q-10 -10 -15.5 -17t-15.5 -12q-29 -25 -50.5 -50 t-39.5 -48q-12 -16 -23.5 -30.5t-25.5 -24.5q-8 -12 -10 -21.5t4 -25.5q6 -41 30 -72q18 -20 28.5 -50t21.5 -56q10 -23 20 -43.5t18 -42.5q14 -18 5 -33q-14 -14 -39 -4q-4 4 -10.5 7t-12.5 9q-16 8 -33.5 14.5t-35.5 6.5q-8 0 -15.5 3t-15.5 7q-6 4 -11.5 10t-0.5 21 q1 7 1 13q1 27 -13 53q-16 30 -40 58q-12 12 -26 0q-27 -27 -49.5 -52t-38.5 -56q-23 -33 -44.5 -58.5t-50.5 -54.5q-4 -4 -10 -12t-14 -14q-25 -31 -35 8q-2 12 -6 22.5t-4 22.5z" />
<glyph unicode="y" horiz-adv-x="751" d="M55 750q4 6 6 10t13 4q14 -4 24.5 -1t20.5 11h14q23 -4 41.5 -9t38.5 -15q12 -10 12 -21q2 -29 10.5 -54.5t8.5 -51.5q0 -18 1 -38t-1 -40q-3 -19 -3 -38t3 -38q4 -31 9 -59.5t1 -57.5q0 -12 4 -14q10 -18 21.5 -28.5t25.5 -20.5q16 -8 29.5 0t23.5 18t18.5 17.5 t16.5 19.5q16 20 30.5 38.5t33.5 37.5q14 20 23 38.5t9 43.5q0 10 5.5 21.5t13.5 21.5q12 23 13 46t-3 46q-4 10 -6 19.5t-2 17.5q0 23 -12 35q-6 10 -9.5 22t3.5 19q10 16 21 24t30 6q14 -4 29.5 -2t29.5 2q4 0 10 1t17 -1q6 -4 12 -6t8 -12q0 -31 27 -41q14 -6 10 -33 q-4 -10 -5 -21.5t-5 -17.5q-6 -23 -12.5 -45t-1.5 -47q0 -4 -3.5 -12t-5.5 -15q-12 -10 -12 -23v-28v-65.5t-4 -65.5q-2 -31 0 -61.5t12 -63.5q4 -8 6 -11t13 1q23 10 45 27q8 6 14 7t18 -1q18 -4 30.5 -15.5t19.5 -23.5q10 -20 7 -33.5t-28 -17.5q-31 -2 -47 -20.5 t-31 -41.5q-8 -8 -14 -16t-18 -10q-16 0 -17 -21q-4 -4 -5 -12t-5 -19q0 -27 -2 -55.5t-6 -58.5q-10 -53 -10.5 -106.5t-10.5 -104.5q-8 -43 -21.5 -85t-45.5 -71q-14 -16 -17.5 -30.5t-9.5 -28.5q-12 -25 -26.5 -42.5t-38.5 -25.5q-10 -4 -15.5 -7t-11.5 -7 q-16 -12 -37 -12q-16 0 -29 14q0 4 -2 6t-2 6q-10 39 -29.5 69.5t-37.5 61.5q-10 20 -19.5 35.5t-21.5 32.5q-8 12 -4 26q14 35 26.5 70t18.5 70q2 4 4 9t4 9q31 47 61.5 92t61.5 92q27 37 51.5 78t54.5 76q4 10 8.5 20.5t-0.5 22.5q0 45 -6 92q0 8 -6 10q-16 -23 -32.5 -45 t-36.5 -41q-10 -4 -15.5 -8t-15.5 -8q-23 -4 -44.5 -9t-41.5 -1q-16 0 -29.5 2t-26.5 4q-14 0 -25 7t-26 11q-55 31 -87 78t-34 115q-4 43 -4 87v91v98q0 16 -5 31.5t-21 28.5q-4 2 -8.5 6t-6.5 8q-12 12 -4 21zM387 -381.5q2 -21.5 2 -44.5q6 -20 23 -25q12 -6 30 17 q2 4 4.5 7t2.5 9q16 31 23 62.5t17 62.5q14 41 17 84q3 27 3 56q0 16 -1 32q-18 -12 -26.5 -28.5t-16.5 -32.5q-4 -23 -14.5 -42.5t-24.5 -37.5q-12 -18 -21.5 -36.5t-15.5 -41.5q-4 -20 -2 -41.5z" />
<glyph unicode="z" horiz-adv-x="770" d="M57 743q0 31 25 31q23 -4 44 -5t44 -1q39 2 80 7t80 7q31 2 57.5 7.5t56.5 3.5q14 0 22.5 9t18.5 25q10 18 23.5 28.5t30.5 16.5q12 2 22 -1t21 -15q23 -18 44 -37.5t48 -34.5q33 -16 41 -57q2 -11 2 -22q0 -29 -15 -58l-18 -18t-12 -19q-8 -10 -14.5 -13t-14.5 -5 q-16 0 -24.5 -6t-16.5 -17q-8 -18 -20 -18q-25 -6 -41.5 -25.5t-32.5 -38.5q-12 -16 -26.5 -34.5t-30.5 -28.5q-10 -10 -21.5 -23.5t-23.5 -23.5q-16 -20 -36 -43t-36 -39q-16 -20 -29.5 -36.5t-13.5 -43.5q0 -19 -8 -37q12 -4 22 0t21 10q45 16 87 30.5t85 25.5 q29 6 56.5 10t55.5 2q10 -4 24.5 -5t24.5 5q25 4 35 -18q8 -14 3 -33t-15 -27q-8 -8 -19.5 -15t-21.5 -7q-25 -4 -43 -11.5t-39 -21.5q-2 -4 -10 -6q-35 -6 -64.5 -20.5t-64.5 -30.5q-10 -4 -21.5 -6.5t-21.5 -6.5q-35 -2 -66 -30q-12 -10 -29.5 -17.5t-33.5 -17.5 q-27 -4 -41 -31q-8 -6 -14.5 -9t-8.5 5q-18 6 -34.5 16.5t-20.5 32.5q-14 31 -13 43t-10 41q-8 10 -9 19.5t-1 17.5q12 37 19 82q0 2 2 4t2 6q16 10 23.5 30.5t21.5 43.5q4 12 13 17t20.5 11.5t22.5 16.5t20 33q0 4 10 20t21.5 35.5t21.5 35t12 19.5q6 18 21.5 40t32 43.5 t33 41t24.5 33.5q6 10 -18.5 5t-57.5 -14.5t-63.5 -18.5t-36.5 -9q-20 0 -40 1t-36 -3q-18 -2 -23 2q-20 23 -40.5 50.5t-30.5 58.5l-8.5 17t-4.5 19z" />
<glyph unicode="{" d="M244 756q6 47 26.5 82.5t75.5 42.5q14 0 28.5 8t28.5 12q41 0 58.5 26.5t25.5 55.5q6 45 2 82t-36 70q-27 27 -41.5 55.5t-22.5 60.5q-23 63 -7.5 117.5t50.5 108.5q18 25 34.5 56.5t39.5 53.5q29 33 68.5 54.5t68.5 58.5q14 25 39 49q10 10 27.5 14t36 1t33 -13 t20.5 -27q6 -14 0 -34q-16 -51 -47 -88t-66 -78q-12 -16 -31.5 -32.5t-40 -33t-37 -34t-22.5 -35.5q-6 -29 0 -64v-61.5t10 -61.5q10 -33 28.5 -62.5t35.5 -62.5q23 -55 13.5 -103t-44.5 -93q-23 -29 -57.5 -57.5t-63.5 -53.5q-18 -12 -16 -20.5t12 -15.5t23.5 -12t19.5 -11 q55 -61 57 -110.5t-53 -119.5q-29 -41 -53.5 -80t-28.5 -90v-43q8 -47 46 -81.5t85 -49.5q27 -8 55.5 -15t57.5 -16q41 -10 70.5 -34.5t56.5 -53.5q43 -49 18 -96q-29 -39 -96 -10q-4 0 -8 3t-12 7q-14 8 -35 14.5t-43 10.5q-47 4 -88 24.5t-82 42.5q-35 18 -57.5 44 t-40.5 55q-43 59 -55.5 125.5t1.5 136.5q10 51 29.5 102t48.5 98q23 35 14.5 46.5t-49.5 15.5h-8q-33 -6 -54.5 2t-32.5 26.5t-14 42t-1 48.5z" />
<glyph unicode="|" d="M379 895q-4 129 6 254t6 254q2 20 8.5 36.5t24.5 26.5q33 18 61.5 35.5t61.5 40.5q27 10 47 4t41 -26q16 -16 28.5 -37t6.5 -56q-20 -98 -36 -199.5t-36 -199.5q-25 -100 -20.5 -199.5t0.5 -201.5q-10 -133 5 -264.5t17 -266.5v-22.5t2 -22.5q2 -25 -3 -43t-30 -35 q-25 -10 -44 -1.5t-40 26.5q-51 41 -72.5 89t-27.5 114q-4 88 -3 179t7 183q2 84 -3 166t-7 166z" />
<glyph unicode="}" d="M340 1735v4q4 4 6 4h4q33 10 70 3t65 -22q35 -18 61.5 -37.5t55.5 -35.5q18 -8 33.5 -15.5t30.5 -23.5q23 -18 38 -57t25 -64q18 -37 26.5 -76t12.5 -80q0 -61 -43 -98q-35 -37 -71 -74t-81 -63q-8 -4 -12 -7t-12 -8q-43 -41 -41 -71.5t61 -48.5q47 -16 80 -47t66 -66 q33 -37 20.5 -72t-59.5 -45q-27 -8 -51.5 -11t-46.5 -13q-55 -35 -15 -82q29 -29 65 -52.5t62 -60.5q27 -33 50.5 -70.5t27.5 -89.5q4 -53 -16.5 -117.5t-55 -125t-82 -107.5t-98.5 -65q-18 -6 -36.5 -15.5t-37.5 -13.5q-84 -27 -84 63q4 59 30 104.5t73 72.5 q31 18 66.5 45.5t59 64.5t27.5 79t-26 87q-14 27 -35 45.5t-43 32.5q-82 49 -113 151q-10 45 2.5 71t36.5 67q27 20 41.5 34.5t15.5 24.5t-13.5 18.5t-47.5 18.5q-43 29 -52 74t-5 96q6 66 36.5 115t73.5 90q16 18 33 33.5t31 29.5q10 10 18 19.5t17 19.5q16 25 16 54.5 t-10 59t-29.5 56.5t-40.5 45q-29 23 -63.5 41t-67.5 41q-18 10 -33.5 28.5t-15.5 41.5z" />
<glyph unicode="~" d="M152 1235q45 33 92 55.5t98 22.5q63 -4 115.5 -20.5t99.5 -53.5q33 -29 71 -30t79 16q23 8 38 25.5t11 45.5q-4 31 11 43.5t38 16.5q23 0 41 2t37 -2q37 -4 52 -28.5t-3 -53.5q-37 -72 -90.5 -119t-134.5 -61q-100 -14 -189 53q-59 43 -109.5 47t-109.5 -37 q-35 -27 -53 -41q-18 -10 -40 -11t-40 7q-106 51 -14 123z" />
<glyph unicode="&#xad;" d="M195 709q-37 49 24 63q51 6 102.5 11t102.5 14q66 6 134.5 11t133.5 28q10 4 21.5 2t25.5 -2q12 0 26.5 -1t33.5 -6q39 -14 39 -57q4 -23 -8.5 -32t-30.5 -13q-92 -29 -176 -29q-66 0 -131.5 -5t-131.5 -9q-16 0 -29.5 -1t-23.5 -9q-41 -10 -65.5 -2t-46.5 37z" />
<glyph unicode="&#xe4;" horiz-adv-x="774" d="M83 324q-3 41 3 84q6 25 13 46t20 44q2 12 -4 18q-16 6 -10 11t14 10q2 2 14 2q20 14 10 34q-8 18 -7 24.5t16 18.5q10 8 17 18.5t21 16.5q10 2 20.5 12.5t16.5 20.5q8 10 15.5 18.5t15.5 16.5q12 4 12 16q0 14 11.5 21.5t17.5 17.5q10 10 19.5 7t19.5 -7q29 -10 51 -22 q6 -2 15.5 -4.5t15.5 2.5q33 6 49 -19q47 -43 104 -18q35 10 68 -4q18 -6 16 -27q0 -8 -2 -16.5t-4 -14.5q-14 -35 -21 -66.5t-1 -66.5q6 -51 0 -100q-6 -55 1 -107.5t23 -103.5q4 -16 5 -29.5t4 -32.5q10 -35 47 -39q10 0 22 4.5t19 6.5q14 6 23 14t17.5 16.5t17.5 15.5 t23 11q25 6 41 4q16 0 17.5 -1t5.5 -15q2 -27 -5 -41.5t-28 -30.5q-29 -23 -52.5 -46.5t-59.5 -29.5q-16 -4 -32 -6t-36 2q-53 10 -84 43t-53 74l-7.5 22.5t-13.5 20.5q-10 -10 -16 -20.5t-16 -22.5q-27 -37 -61 -63.5t-81 -36.5q-25 -4 -46 -2t-46 12q-27 10 -52.5 28.5 t-47.5 40.5q-61 53 -66 134q-6 43 -9 84zM166 973q6 94 94 96q18 2 35.5 -7t31 -24.5t18.5 -34t-1 -32.5q-6 -20 -8 -41t-19 -33q-16 -12 -34.5 -6t-36.5 4q-80 -6 -80 78zM227 225q4 -18 6.5 -33.5t8.5 -29.5q6 -23 20 -31t35 -10q16 -4 27.5 5t21.5 24q8 18 16.5 36.5 t16.5 34.5q8 23 13 43.5t1 42.5q-6 25 8 55q10 27 16.5 54.5t2.5 56.5q-2 41 14 88q6 10 -2 31.5t-18 25.5q-6 4 -10.5 2t-10.5 -4q-2 -2 -8 -10q-8 -16 -19.5 -32.5t-33.5 -24.5q-4 0 -10 -6q-6 -25 -20.5 -43.5t-31.5 -34.5q-8 -14 -12 -29q-4 -16 -7 -32.5t-7 -32.5 q-10 -35 -11.5 -73t-5.5 -73zM404.5 989.5q3.5 18.5 15.5 30.5q12 14 23.5 31.5t29.5 21.5q20 6 34.5 -7t33.5 -19q76 -27 39 -105q-45 -80 -127 -47q-16 6 -28.5 21.5t-18 35t-2 38z" />
<glyph unicode="&#x2000;" horiz-adv-x="882" />
<glyph unicode="&#x2001;" horiz-adv-x="1765" />
<glyph unicode="&#x2002;" horiz-adv-x="882" />
<glyph unicode="&#x2003;" horiz-adv-x="1765" />
<glyph unicode="&#x2004;" horiz-adv-x="588" />
<glyph unicode="&#x2005;" horiz-adv-x="441" />
<glyph unicode="&#x2006;" horiz-adv-x="294" />
<glyph unicode="&#x2007;" horiz-adv-x="294" />
<glyph unicode="&#x2008;" horiz-adv-x="220" />
<glyph unicode="&#x2009;" horiz-adv-x="353" />
<glyph unicode="&#x200a;" horiz-adv-x="98" />
<glyph unicode="&#x2010;" d="M195 709q-37 49 24 63q51 6 102.5 11t102.5 14q66 6 134.5 11t133.5 28q10 4 21.5 2t25.5 -2q12 0 26.5 -1t33.5 -6q39 -14 39 -57q4 -23 -8.5 -32t-30.5 -13q-92 -29 -176 -29q-66 0 -131.5 -5t-131.5 -9q-16 0 -29.5 -1t-23.5 -9q-41 -10 -65.5 -2t-46.5 37z" />
<glyph unicode="&#x2011;" d="M195 709q-37 49 24 63q51 6 102.5 11t102.5 14q66 6 134.5 11t133.5 28q10 4 21.5 2t25.5 -2q12 0 26.5 -1t33.5 -6q39 -14 39 -57q4 -23 -8.5 -32t-30.5 -13q-92 -29 -176 -29q-66 0 -131.5 -5t-131.5 -9q-16 0 -29.5 -1t-23.5 -9q-41 -10 -65.5 -2t-46.5 37z" />
<glyph unicode="&#x2012;" d="M195 709q-37 49 24 63q51 6 102.5 11t102.5 14q66 6 134.5 11t133.5 28q10 4 21.5 2t25.5 -2q12 0 26.5 -1t33.5 -6q39 -14 39 -57q4 -23 -8.5 -32t-30.5 -13q-92 -29 -176 -29q-66 0 -131.5 -5t-131.5 -9q-16 0 -29.5 -1t-23.5 -9q-41 -10 -65.5 -2t-46.5 37z" />
<glyph unicode="&#x2013;" d="M195 709q-37 49 24 63q51 6 102.5 11t102.5 14q66 6 134.5 11t133.5 28q10 4 21.5 2t25.5 -2q12 0 26.5 -1t33.5 -6q39 -14 39 -57q4 -23 -8.5 -32t-30.5 -13q-92 -29 -176 -29q-66 0 -131.5 -5t-131.5 -9q-16 0 -29.5 -1t-23.5 -9q-41 -10 -65.5 -2t-46.5 37z" />
<glyph unicode="&#x2014;" d="M84 750q-2 23 14.5 30.5t40.5 12.5q63 10 123 15t119 1q88 -4 176 -3t180 -1h39t33 8q55 8 89 -2t63 -41q47 -53 -37 -61q-68 -4 -138.5 -5.5t-140.5 -5.5q-92 -4 -183 -3t-181 -19q-16 -2 -31 0t-33 4q-16 2 -35.5 3t-46.5 7q-29 10 -40 23.5t-11 36.5z" />
<glyph unicode="&#x2018;" horiz-adv-x="315" d="M47 1135q0 20 8 26q10 47 20.5 88t14.5 86q6 35 16.5 63.5t22.5 61.5q16 47 50 74t75 47q16 12 31.5 2t15.5 -33q0 -20 -12 -34q-33 -82 -48.5 -167t-21.5 -178q0 -25 -10 -44t-21 -35q-23 -23 -48 -24t-54 11q-45 21 -39 56z" />
<glyph unicode="&#x2019;" horiz-adv-x="290" d="M14 1096q0 18 13 34q33 82 48 167t21 178q0 25 10.5 44t20.5 35q23 23 48.5 24t53.5 -11q45 -21 39 -56q0 -20 -8 -26q-10 -47 -20.5 -88t-14.5 -86q-6 -35 -16 -63.5t-23 -61.5q-16 -47 -50 -74t-75 -47q-16 -12 -31.5 -2t-15.5 33z" />
<glyph unicode="&#x201c;" horiz-adv-x="569" d="M35 1135q0 20 8 26q10 47 20.5 88t14.5 86q6 35 16 63.5t23 61.5q16 47 50 74t75 47q16 12 31.5 2t15.5 -33q0 -20 -13 -34q-33 -82 -48 -167t-21 -178q0 -25 -10.5 -44t-20.5 -35q-23 -23 -48.5 -24t-53.5 11q-45 21 -39 56zM336 1139q16 74 36.5 147.5t41.5 149.5 q6 35 27.5 68.5t62.5 54.5q10 4 19 10t20 2q16 -10 16 -23.5v-25.5v-13q-10 -90 -27.5 -176t-23.5 -172q0 -41 -27.5 -67.5t-66.5 -30.5q-53 -8 -70.5 7t-7.5 69z" />
<glyph unicode="&#x201d;" horiz-adv-x="530" d="M-16 1098.5v25.5v13q10 90 27.5 176t23.5 172q0 41 27.5 67.5t66.5 30.5q53 8 70.5 -7t7.5 -69q-16 -74 -36.5 -147.5t-41.5 -149.5q-6 -35 -27.5 -68.5t-62.5 -54.5q-10 -4 -19.5 -10t-19.5 -2q-16 10 -16 23.5zM254 1096q0 18 12 34q33 82 48.5 167t21.5 178 q0 25 10 44t21 35q23 23 48 24t54 -11q45 -21 39 -56q0 -20 -8 -26q-10 -47 -20.5 -88t-14.5 -86q-6 -35 -16.5 -63.5t-22.5 -61.5q-16 -47 -50 -74t-75 -47q-16 -12 -31.5 -2t-15.5 33z" />
<glyph unicode="&#x202f;" horiz-adv-x="353" />
<glyph unicode="&#x205f;" horiz-adv-x="441" />
<glyph unicode="&#x25fc;" horiz-adv-x="696" d="M0 0v696h696v-696h-696z" />
</font>
</defs>
</svg>
